<?xml version="1.0" encoding="utf-8"?>
<!-- Generator: Adobe Illustrator 24.0.1, SVG Export Plug-In . SVG Version: 6.00 Build 0)  -->
<svg version="1.1" id="Layer_1" xmlns="http://www.w3.org/2000/svg" xmlns:xlink="http://www.w3.org/1999/xlink" x="0px" y="0px"
	 viewBox="0 0 40 40" style="enable-background:new 0 0 40 40;" xml:space="preserve">
<path id="dry" style="fill:#B5C6DE;" d="M5.9,29.9l9.4-9.4l4.2,4.2l-9.4,9.4L5.9,29.9z M20.6,15.2L30,5.8l4.2,4.2l-9.4,9.4
	L20.6,15.2z"/>
<path id="wet" style="fill:#2EC0FF;" d="M31,25C31,31.1,26,36,20,36S9,31.1,9,25c0-1.7,0.4-3.3,1.1-4.8C11.9,16.6,20,4.7,20,4.7
	s8.1,11.9,9.9,15.6C30.6,21.7,31,23.3,31,25z"/>
<g id="dirt">
	<polygon style="fill:#CD5542;" points="26.7,15 20,3.4 13.3,15 	"/>
	<polygon style="fill:#CD5542;" points="29,19 11,19 2.9,33 37.1,33 	"/>
</g>
<path id="grass" style="fill:#28B459;" d="M32,21.6C31.5,29.1,25.7,35,18.4,35c-1.7,0-3.3-0.2-4.7-0.9C9.8,32.5,24.8,16,24.3,15.6
	C24,15.3,7.5,30.6,5.9,26.3c-0.5-1.4-0.8-3-0.8-4.6c0-7.4,5.4-12.8,13.6-13.5l14.2-0.9L32,21.6z"/>
<path id="gravel" style="fill:#AB7955;" d="M6.7,29.9l-2.8-9.1l13-13.8l12.9,1.1l-4.3,12.4l-8.1,7.3L6.7,29.9z M25.6,25.9l-6.7,5.9
	l-8.6,1.4l11.7,2.5l7.1-6.3L25.6,25.9z M32.3,25.5l3.9-7L33.3,11l-3.9,11.7L32.3,25.5z"/>
<path id="ice" style="fill:#68BEF2;" d="M20,3.9l-10,5v22.4l10,5l10-5V8.9L20,3.9z M20,7.9l7,3.5v1.5c-1.4,3.9-9.4,10-14,5.4v-6.8
	L20,7.9z M20,32.1L13.8,29c7.8-2.3,12.5-9.6,13.2-15v14.6L20,32.1z"/>
<path id="sand" style="fill:#CC9F42;" d="M35.7,31c2.3,0,2.7-1.7,2-2.7c-0.6-1-1.1-2-3.6-6s-4.2-3.4-6.8-0.3s-6,1.9-7.1,0.4
	c-1.1-1.5-1.6-2.4-4.2-8.8s-4.8-3.9-7.2,0S2.7,25.7,2.2,27.2S2.1,31,5.1,31H35.7z"/>
<g id="snow">
	<polygon style="fill:#63EFDE;" points="20,17.7 24.1,10.6 20,4 15.9,10.6 	"/>
	<polygon style="fill:#63EFDE;" points="22.5,19 30.7,19 34.8,12 26.6,12 	"/>
	<polygon style="fill:#63EFDE;" points="17.5,19 13.4,12 5.3,12 9.3,19 	"/>
	<polygon style="fill:#63EFDE;" points="17.5,22 9.3,22 5.3,29 13.5,29 	"/>
	<polygon style="fill:#63EFDE;" points="22.5,22 26.5,29 34.8,29 30.7,22 	"/>
	<polygon style="fill:#63EFDE;" points="20,23.4 15.9,30.4 20,37.2 24.1,30.4 	"/>
</g>
<path id="water" style="fill:#316BE7;" d="M29.9,20.2C28.1,16.6,20,4.7,20,4.7s-8.1,11.9-9.9,15.6C9.4,21.7,9,23.3,9,25
	c0,6,4.9,10.9,11,10.9S31,31,31,25C31,23.3,30.6,21.7,29.9,20.2z M20.1,32.7c-4.2,0-7.7-3.4-7.7-7.6c0-3.3,2.1-6.1,5.1-7.2
	c-0.9,1.2-1.5,2.8-1.5,4.4c0,4.1,3.4,7.5,7.5,7.5c1.1,0,2.1-0.2,3-0.6C25.2,31.3,22.8,32.7,20.1,32.7z"/>
<path style="fill:#0B2137;" d="M19.1,5.4l-15.9,26C2.8,32.1,3.3,33,4.1,33h31.8c0.8,0,1.3-0.9,0.9-1.6l-15.9-26
	C20.5,4.8,19.5,4.8,19.1,5.4z"/>
<g>
	<path style="fill:#FFDD44;" d="M21.4,18.8c0-3.7-2.2-6.8-5.4-8.2l-0.7,1.2c0.2,0.1,0.4,0.2,0.6,0.3l-3.3,5.4l-0.4-0.7l-1.6,2.7h0.8
		L8,24.8c-0.2-0.1-0.3-0.3-0.5-0.4l-0.7,1.2c1.5,1.3,3.5,2.1,5.7,2.1C17.4,27.7,21.4,23.7,21.4,18.8z M17,12.8
		c1.7,1.2,2.8,3.1,3,5.3h-6.3L17,12.8z M20,19.5c-0.2,2.2-1.4,4.2-3.1,5.4l-3.1-5.4H20z M12.5,20.1l3.2,5.5c-1,0.4-2,0.7-3.1,0.7
		c-1.2,0-2.3-0.3-3.3-0.8L12.5,20.1z"/>
	<path style="fill:#FFDD44;" d="M25.9,25.2c0.9-1.9,1.5-4.1,1.5-6.4c0-5.8-3.3-11.2-8.2-13.6L18,7.2c4.3,2.1,7.3,6.5,7.3,11.6
		c0,7.1-5.8,12.8-12.8,12.8c-2.9,0-5.6-1-7.8-2.7l-1.5,3.3c2.5,1.8,6,1.4,9.3,1.4c5.2,0,9.8-2.7,12.4-6.7l11.4,5.7l0.9-1.8
		L25.9,25.2z"/>
</g>
<path id="SVGID_1_" style="fill:#FFDD44;" d="M19.1,5.4l-15.9,26C2.8,32.1,3.3,33,4.1,33h31.8c0.8,0,1.3-0.9,0.9-1.6l-15.9-26
	C20.5,4.8,19.5,4.8,19.1,5.4z"/>
<path style="fill:#0B2137;" d="M33.7,26.4c-0.1,0-3.2,0-4.3,0c-2.7,0-4-7.1-9.5-7.1c-5.5,0-6.6,7.1-9.5,7.1c-1,0-4.2,0-4.3,0l-3,5
	C2.8,32.1,3.3,33,4.1,33h31.8c0.8,0,1.3-0.9,0.9-1.6L33.7,26.4z"/>
<path style="fill:#FFDD44;" d="M35.9,34H4.1c-0.7,0-1.4-0.4-1.8-1.1c-0.4-0.7-0.4-1.5,0-2.1l15.9-26v0c0.4-0.6,1-1,1.8-1
	s1.4,0.4,1.8,1l15.9,26c0.4,0.6,0.4,1.4,0,2.1C37.3,33.6,36.6,34,35.9,34z M20,6l-15.9,26l31.8,0L20,6L20,6z"/>
</svg>
