<?xml version="1.0" encoding="utf-8"?>
<!-- Generator: Adobe Illustrator 24.0.1, SVG Export Plug-In . SVG Version: 6.00 Build 0)  -->
<svg version="1.1" id="Layer_1" xmlns="http://www.w3.org/2000/svg" xmlns:xlink="http://www.w3.org/1999/xlink" x="0px" y="0px"
	 viewBox="0 0 33 33" style="enable-background:new 0 0 33 33;" xml:space="preserve">
<path style="fill:none;stroke:#59B510;stroke-width:1.8;stroke-linecap:round;stroke-linejoin:round;stroke-miterlimit:10;" d="
	M8.6,28.5c0.1-5.7-1.9-7.4-5.1-13.3c3,1.8,5.3,3.2,6.7,4c-0.5-2.4-2.5-8.5-4.3-11.2c2.2,1.1,7,7,7.7,10.1c0.6-2.9,2.7-7.4,3.6-9.5
	c-0.4,3.5,0.9,6.6,1.3,7.8c0.9-1.3,4.8-8.9,4.8-11.7c0.6,2.7-1.3,14.3-2,17.3c1.3-3.1,5.7-6.4,8.4-6.7c-1.4,1.2-4,7.4-3.6,13.4"/>
</svg>
