<?xml version="1.0" encoding="utf-8"?>
<!-- Generator: Adobe Illustrator 24.0.1, SVG Export Plug-In . SVG Version: 6.00 Build 0)  -->
<svg version="1.1" id="Layer_1" xmlns="http://www.w3.org/2000/svg" xmlns:xlink="http://www.w3.org/1999/xlink" x="0px" y="0px"
	 viewBox="0 0 33 33" style="enable-background:new 0 0 33 33;" xml:space="preserve">
<path style="fill:none;stroke:#E5C985;stroke-width:1.6;stroke-miterlimit:10;" d="M14.1,5.3c1.1-0.9,5.9-1.4,5,1.3
	c-1.2,3.4-0.8,7.1-4.8,4.8C12.6,11.1,13.2,6.8,14.1,5.3z"/>
<path style="fill:none;stroke:#E5C985;stroke-width:1.6;stroke-miterlimit:10;" d="M23,6.8c2-1.9,7.7,0.9,3.8,3.2
	C25.2,9,22.1,10.3,23,6.8z"/>
<path style="fill:none;stroke:#E5C985;stroke-width:1.6;stroke-miterlimit:10;" d="M5.9,6.1C8.8,4.7,14,8.4,7.5,10
	c-0.5,0-1-0.2-1.5-0.4C5.7,9.2,4.7,7.5,5.9,6.1z"/>
<path style="fill:none;stroke:#E5C985;stroke-width:1.6;stroke-miterlimit:10;" d="M15.2,15.7c1.9-1.1,6.5,3.7,2.5,5.1
	C12.3,21.8,10.1,20,15.2,15.7z"/>
<path style="fill:none;stroke:#E5C985;stroke-width:1.6;stroke-miterlimit:10;" d="M6.7,12.7c0.8-0.6,5,1.3,3.9,3.7
	c-2.1,2.1-9,4-6.7-2.9C4.8,13.2,5.8,13,6.7,12.7z"/>
<path style="fill:none;stroke:#E5C985;stroke-width:1.6;stroke-miterlimit:10;" d="M22.5,12.6c1.7-0.5,7.7,0.4,6.5,4
	c-1.3,0.3-3.2,1-5.4,1.4C22.5,17.1,20.1,14.7,22.5,12.6z"/>
<path style="fill:none;stroke:#E5C985;stroke-width:1.6;stroke-miterlimit:10;" d="M26.3,20.6c0.4-0.1,0.9-0.3,1.3-0.2
	C32.3,32.3,11.6,25.2,26.3,20.6z"/>
<path style="fill:none;stroke:#E5C985;stroke-width:1.6;stroke-miterlimit:10;" d="M5,21.9c0-0.3,0.1-0.5,0.3-0.7
	C15.2,21.8,4.5,31.6,5,21.9z"/>
<path style="fill:none;stroke:#E5C985;stroke-width:1.6;stroke-miterlimit:10;" d="M15.2,24.4c1.3-0.5,3.1,0.7,3.3,2.9
	C16.9,28.4,5.8,28.6,15.2,24.4z"/>
</svg>
