<?xml version="1.0" encoding="utf-8"?>
<!-- Generator: Adobe Illustrator 24.0.1, SVG Export Plug-In . SVG Version: 6.00 Build 0)  -->
<svg version="1.1" id="Layer_1" xmlns="http://www.w3.org/2000/svg" xmlns:xlink="http://www.w3.org/1999/xlink" x="0px" y="0px"
	 viewBox="0 0 33 33" style="enable-background:new 0 0 33 33;" xml:space="preserve">
<path style="fill:none;stroke:#F9AA0D;stroke-width:1.8;stroke-linecap:round;stroke-miterlimit:10;" d="M20.4,21.1c0,0,0.6,0,3.1,0
	c4,0,5.4-1.5,5.4-5.4c0-1.7,0-5.3,0-5.3C29,9.1,27.9,8,26.6,8h0c-1.3,0-2.4,1.1-2.4,2.4c0,0,0,4.1,0,5.2c0,0.5-0.2,1-0.8,1h-3"/>
<path style="fill:none;stroke:#F9AA0D;stroke-width:1.8;stroke-linecap:round;stroke-miterlimit:10;" d="M12.6,24.7c0,0-0.6,0-3.1,0
	c-4,0-5.4-1.5-5.4-5.4c0-1.7,0-3.5,0-3.5c0-1.3,1.1-2.4,2.4-2.4h0c1.3,0,2.4,1.1,2.4,2.4c0,0,0,2.3,0,3.4c0,0.5,0.2,1,0.8,1h3"/>
<path style="fill:none;stroke:#F9AA0D;stroke-width:2;stroke-linecap:round;stroke-miterlimit:10;" d="M18.8,29.3h-4.6
	c-0.7,0-1.2-0.5-1.2-1.2V8.8c0-1.9,1.6-3.5,3.5-3.5h0c1.9,0,3.5,1.6,3.5,3.5v19.3C20,28.8,19.5,29.3,18.8,29.3z"/>
</svg>
