<?xml version="1.0" encoding="utf-8"?>
<!-- Generator: Adobe Illustrator 24.0.1, SVG Export Plug-In . SVG Version: 6.00 Build 0)  -->
<svg version="1.1" id="Layer_1" xmlns="http://www.w3.org/2000/svg" xmlns:xlink="http://www.w3.org/1999/xlink" x="0px" y="0px"
	 viewBox="0 0 27 21" style="enable-background:new 0 0 27 21;" xml:space="preserve">
<path style="fill:#15DFFF;" d="M5.6,3.4h3.3l1.1,4.3l4.3-4.3c0,0,3.5,0,8.3,0s4.8,3.4,3.8,5.5c-1,2-2.9,3.8-6.4,3.8c0,0-2.4,0-2.4,0
	c-0.3,1-1.7,4.8-1.7,4.8l-1-4.8l1-2.3c0,0,2.2,0,4.5,0c1.6,0,2.8-0.9,3.5-2C24,7.3,23.9,6,22.1,6c-3.8,0-6.8,0-6.8,0l-4.7,4.7
	l1.7,6.9H9l-1-4.2l-4.1,4.2H0.3l7-7.1L5.6,3.4z"/>
</svg>
