<?xml version="1.0" encoding="utf-8"?>
<!-- Generator: Adobe Illustrator 24.0.1, SVG Export Plug-In . SVG Version: 6.00 Build 0)  -->
<svg version="1.1" id="Layer_1" xmlns="http://www.w3.org/2000/svg" xmlns:xlink="http://www.w3.org/1999/xlink" x="0px" y="0px"
	 viewBox="0 0 27 21" style="enable-background:new 0 0 27 21;" xml:space="preserve">
<g>
	<path style="fill:none;stroke:#FFFFFF;stroke-width:1.7;stroke-linecap:round;stroke-miterlimit:10;" d="M18.7,7.8
		C17.6,4.4,14.4,2,10.6,2C5.8,2,2,5.8,2,10.6s3.8,8.6,8.6,8.6c0.8,0,1.6-0.1,2.4-0.3"/>
	<path style="fill:none;stroke:#FFFFFF;stroke-width:1.7;stroke-miterlimit:10;" d="M10.6,5.2c-3,0-5.4,2.4-5.4,5.4S7.6,16,10.6,16
		s5.4-2.4,5.4-5.4S13.6,5.2,10.6,5.2z"/>
	
		<line style="fill:none;stroke:#D8634A;stroke-width:2;stroke-linecap:round;stroke-miterlimit:10;" x1="25" y1="13" x2="18.4" y2="13"/>
	
		<line style="fill:none;stroke:#D8634A;stroke-width:2;stroke-linecap:round;stroke-miterlimit:10;" x1="22.1" y1="10" x2="19.1" y2="10"/>
	
		<line style="fill:none;stroke:#D8634A;stroke-width:2;stroke-linecap:round;stroke-miterlimit:10;" x1="22.1" y1="16" x2="16.9" y2="16"/>
	
		<line style="fill:none;stroke:#D8634A;stroke-width:2;stroke-linecap:round;stroke-miterlimit:10;" x1="19.9" y1="19" x2="15.4" y2="19"/>
	<path style="fill:#FFFFFF;" d="M10.8,7.3l0.5,2.2c0,0.1,0.1,0.2,0.2,0.2l2.2-0.2c0.2,0,0.3,0.3,0.1,0.4L12,10.9
		c-0.1,0.1-0.1,0.2-0.1,0.3l0.9,2c0.1,0.2-0.2,0.4-0.4,0.3l-1.7-1.5c-0.1-0.1-0.2-0.1-0.3,0l-1.7,1.5c-0.2,0.2-0.4,0-0.4-0.3l0.9-2
		c0-0.1,0-0.2-0.1-0.3L7.3,9.8C7.1,9.7,7.2,9.4,7.4,9.4l2.2,0.2c0.1,0,0.2-0.1,0.2-0.2l0.5-2.2C10.4,7,10.8,7,10.8,7.3z"/>
</g>
</svg>
