<?xml version="1.0" encoding="utf-8"?>
<!-- Generator: Adobe Illustrator 24.0.1, SVG Export Plug-In . SVG Version: 6.00 Build 0)  -->
<svg version="1.1" id="Layer_1" xmlns="http://www.w3.org/2000/svg" xmlns:xlink="http://www.w3.org/1999/xlink" x="0px" y="0px"
	 viewBox="0 0 33 33" style="enable-background:new 0 0 33 33;" xml:space="preserve">
<path style="fill:#FBAD14;" d="M30.6,14.8l-6-10.4c-0.5-0.8-1.3-1.3-2.2-1.3h-12c-0.9,0-1.8,0.5-2.2,1.3l-6,10.4
	c-0.5,0.8-0.5,1.8,0,2.6l6,10.4c0.5,0.8,1.3,1.3,2.2,1.3h12c0.9,0,1.8-0.5,2.2-1.3l6-10.4C31,16.5,31,15.6,30.6,14.8z M14.9,22.2
	h2.8l1.6-3.7l-3.4,0l1.1-2.3H23l-3.3,8.5c0,0-3.5,0-6.1,0S9.2,23.5,9.2,20c0-3.7,2.3-8.1,5.2-10.7s8-1.8,8-1.8l1.3,2.6
	c0,0-3.8-0.4-6.6,0.6s-4.8,5.7-4.9,8.7C12,22.5,14.9,22.2,14.9,22.2z"/>
</svg>
