<?xml version="1.0" encoding="utf-8"?>
<!-- Generator: Adobe Illustrator 24.0.1, SVG Export Plug-In . SVG Version: 6.00 Build 0)  -->
<svg version="1.1" id="Layer_1" xmlns="http://www.w3.org/2000/svg" xmlns:xlink="http://www.w3.org/1999/xlink" x="0px" y="0px"
	 viewBox="0 0 33 33" style="enable-background:new 0 0 33 33;" xml:space="preserve">
<path style="fill:none;stroke:#C0FFFF;stroke-width:2;stroke-linecap:round;stroke-miterlimit:10;" d="M15.5,5.3l-8.3,4.8
	c-0.6,0.4-1,1.1-1,1.8l0,9.6c0,0.7,0.4,1.4,1,1.8l8.3,4.8c0.6,0.4,1.4,0.4,2.1,0l8.3-4.8c0.6-0.4,1-1.1,1-1.8l0-9.6
	c0-0.7-0.4-1.4-1-1.8l-8.3-4.8C16.9,4.9,16.1,4.9,15.5,5.3z"/>
<g>
	<polyline style="fill:none;stroke:#C0FFFF;stroke-width:2;stroke-linecap:round;stroke-miterlimit:10;" points="6.3,11 16.5,16.8 
		26.7,11 	"/>
	
		<line style="fill:none;stroke:#C0FFFF;stroke-width:2;stroke-linecap:round;stroke-miterlimit:10;" x1="16.5" y1="16.8" x2="16.5" y2="28.4"/>
</g>
</svg>
