<?xml version="1.0" encoding="utf-8"?>
<!-- Generator: Adobe Illustrator 24.0.1, SVG Export Plug-In . SVG Version: 6.00 Build 0)  -->
<svg version="1.1" id="Layer_1" xmlns="http://www.w3.org/2000/svg" xmlns:xlink="http://www.w3.org/1999/xlink" x="0px" y="0px"
	 viewBox="0 0 23 23" style="enable-background:new 0 0 23 23;" xml:space="preserve">
<path d="M22,10.4c-0.1-0.4-0.5-0.7-0.9-0.6c-0.5,0.1-1.1,0.2-1.6,0.3l-1.8-3.5c-0.1-0.3-0.3-0.6-0.5-0.8c-0.3-0.4-0.8-0.6-1.4-0.6
	l-3.5-0.1c-1.7,0-3.4,0-5,0.1c-0.5,0-1,0.2-1.4,0.6C5.6,6,5.5,6.3,5.4,6.6c-0.6,1.2-1.2,2.3-1.8,3.5c-0.5-0.1-1-0.2-1.5-0.3
	c-0.4-0.1-0.9,0.1-1,0.5c-0.2,0.4,0.1,0.8,0.5,1c0.4,0.1,0.8,0.2,1.2,0.3c-0.1,0.2-0.3,0.4-0.2,0.6c0,2.1-0.1,3.2-0.1,5.8
	c0,0.5,0.4,1,0.8,1c0.8,0,1.6,0,2.4,0c0.4,0,0.8-0.5,0.8-1c0-0.5,0-0.6,0-1.1c3.3,0,6.6,0,9.9,0c0,0.5,0,0.6,0,1.1
	c0,0.5,0.4,1,0.8,1c0.8,0,1.6,0,2.4,0c0.5,0,0.9-0.5,0.8-1.1c0-2.6,0-3.7-0.1-5.7c0-0.2-0.2-0.4-0.2-0.6c0.4-0.1,0.8-0.1,1.2-0.2
	C21.8,11.2,22.1,10.7,22,10.4z M5.7,10.3c-0.3,0-0.5-0.1-0.6-0.3C5,9.8,5.2,9.5,5.2,9.3C5.6,8.5,6,7.6,6.6,6.8
	C6.8,6.6,7,6.3,7.3,6.3c1.8-0.2,3.6-0.2,5.4-0.2l3,0.2c0.3,0,0.6,0.3,0.7,0.5c0.6,0.8,0.9,1.7,1.3,2.5c0.1,0.2,0.2,0.4,0.1,0.6
	c-0.1,0.2-0.4,0.4-0.6,0.3c0,0-1.2-0.2-5.8-0.2S5.7,10.3,5.7,10.3z M7.6,14c-1,0-2.1,0-3.1,0c-0.2,0-0.5-0.1-0.6-0.3
	c-0.2-0.3-0.1-0.6-0.1-0.9c0-0.3,0.1-0.6,0.4-0.7c0.2-0.1,0.3,0,0.5,0c0.8,0.1,1.6,0.2,2.4,0.4C7.3,12.6,7.7,12.8,8,13
	C8.2,13.4,8,13.9,7.6,14z M19.4,13.3c0,0.3-0.3,0.7-0.6,0.7c-1,0-2.1,0-3.1,0c-0.2,0-0.4-0.1-0.6-0.2c-0.2-0.2-0.1-0.5-0.1-0.7
	c0.4-0.3,0.9-0.5,1.4-0.6c0.8-0.2,1.6-0.3,2.4-0.4c0.3-0.1,0.6,0.2,0.6,0.5C19.4,12.8,19.4,13.1,19.4,13.3z"/>
</svg>
