<?xml version="1.0" encoding="utf-8"?>
<!-- Generator: Adobe Illustrator 24.0.1, SVG Export Plug-In . SVG Version: 6.00 Build 0)  -->
<svg version="1.1" id="Layer_1" xmlns="http://www.w3.org/2000/svg" xmlns:xlink="http://www.w3.org/1999/xlink" x="0px" y="0px"
	 viewBox="0 0 95 58" style="enable-background:new 0 0 95 58;" xml:space="preserve">
<style type="text/css">
	.st0{fill:none;stroke:#80DAFD;stroke-linecap:round;stroke-linejoin:round;stroke-miterlimit:10;}
</style>
<path class="st0" d="M76.1,37.3h-4.7l1.2-4H77c0.3-1.4,0.7-2.9,1.1-4.3h-4.8l1.2-4h4.6c0.3-1.3,0.6-2.5,0.9-3.8
	c-6.1-0.1-12.3,0.1-18.4-0.1c-3.1-2.7-6.2-5.7-10.4-6.8c-1.8-3.1-3.6-6.2-5.2-9.4c-1.7,3.2-3.4,6.3-5.3,9.4
	c-3.9,1.3-7.3,3.7-9.9,6.8c-6.3,0.1-12.6,0-18.9,0.1c0.3,1.3,0.6,2.5,0.9,3.8h4.4l1.2,4h-4.6c0.4,1.4,0.7,2.9,1.1,4.3h4.3l1.2,4H16
	c0.3,1.4,0.7,2.7,1,4.1c2.9,0,5.8,0,8.8,0c-1.2,2-2.4,3.9-3.6,5.9c3.3,0,6.6,0,10-0.1c7.3,7.7,20.6,7.7,27.9,0c3.3,0,6.7,0,10,0.1
	c-1.2-1.9-2.4-3.9-3.6-5.9c2.9,0,5.8,0.1,8.7,0.1C75.4,40,75.7,38.7,76.1,37.3z M55,42.8c-3-1.8-6-3.5-8.9-5.3c-3,1.8-5.8,3.8-9,5.1
	c-2.3,0.1-4.6-0.1-7-0.2c1.3-2.1,2.3-4.5,3.9-6.4c2.6-1.9,5.6-3.3,8.3-5c0-3.3-0.1-6.6,0.1-9.9c0.9-2.3,2.4-4.4,3.6-6.5
	c1.2,2.2,2.9,4.2,3.7,6.6c0.2,3.3,0,6.5,0,9.8c3,1.9,6.2,3.3,8.9,5.5c1.3,1.9,2.3,4,3.4,6C59.7,42.5,57.4,42.6,55,42.8z"/>
<path class="st0" d="M39.9,18.2c-5.9,3.2-10.1,9.9-9.4,16.8"/>
<line class="st0" x1="36.7" y1="38.9" x2="46.1" y2="33.3"/>
<line class="st0" x1="55.6" y1="38.9" x2="46.1" y2="33.3"/>
<line class="st0" x1="46.1" y1="33.4" x2="46.1" y2="22.4"/>
<path class="st0" d="M62.2,34.9c0.7-6.9-3.5-13.5-9.4-16.8"/>
<path class="st0" d="M36.2,46.8c5.9,4,13.9,4,19.7-0.1"/>
</svg>
