<?xml version="1.0" encoding="utf-8"?>
<!-- Generator: Adobe Illustrator 24.0.1, SVG Export Plug-In . SVG Version: 6.00 Build 0)  -->
<svg version="1.1" id="Layer_1" xmlns="http://www.w3.org/2000/svg" xmlns:xlink="http://www.w3.org/1999/xlink" x="0px" y="0px"
	 viewBox="0 0 95 58" style="enable-background:new 0 0 95 58;" xml:space="preserve">
<style type="text/css">
	.st0{fill:#FF8A5C;}
	.st1{fill:none;stroke:#FF8A5C;stroke-width:1.5;stroke-linecap:round;stroke-linejoin:round;}
	.st2{fill:none;stroke:#FF8A5C;stroke-width:1.5;}
</style>
<g>
	<path class="st0" d="M29.1,11.1v1.5c3.7,0,7.3,0,11,0c6.8,0.1,13.6,4.8,16.5,11.5c0.2,0.6,0.8,0.9,1.4,0.9c0,0,0,0,0,0
		c3.3,0,6.7-0.1,11.2-0.1c2.1,0,4.1,0,6.2,0c2.1,0,4.1,0,6.2,0c0.9,0,1.7,0,2.6,0c-2.4,3.1-4.9,6.3-7.3,9.5l-3.2,0
		c-3.3,0-6.5,0-9.7,0c-3.9,0-7.2,0-10.4,0.1c-0.3,0-0.6,0.1-0.9,0.3c-0.3,0.3-0.9,0.7-1.5,1.2c-0.4,0.3-0.7,0.6-0.9,0.7
		c-0.5,0.4-0.7,1.1-0.5,1.7c0.2,0.6,0.8,1,1.4,1c3.9,0,8,0,11.2,0c0.7,0,1.3,0,1.9,0c-1.7,2.2-3.4,4.4-5,6.6
		c-0.6,0.8-1.2,1.6-1.9,2.5c-1.9,0-3.8,0-5.7,0c-2.1,0-4.3,0-6.4,0c-2.9,0-5.3,0-7.5,0c-7.2,0-14.1-5.1-16.9-12.2
		c-0.2-0.6-0.8-0.9-1.4-1c-0.8,0-1.5,0-2.3,0c-1.8,0-3.7,0-5.7,0c2.2-2.9,4.4-5.8,7-9.1c2,0,6.3,0,6.3,0c0.4,0,0.7-0.1,1-0.4
		l1.4-1.2c0.5-0.4,0.6-1.1,0.4-1.7c-0.2-0.6-0.8-1-1.4-1c-3.6,0-6.9,0-10.2,0c-2.3,0-4.6,0-7,0c2.5-3.1,4.9-6.3,7.1-9.4
		c4.1,0,8.4,0,12.7,0V11.1 M29.1,11.1c-4.5,0-9,0-13.5,0c-3.1,4.2-6.2,8.5-9.6,12.4c7.3,0,13.2-0.1,20.4-0.1L25,24.6c0,0-5.7,0-7,0
		c-3.1,4-6.3,8-9.3,12.1c2.9,0,5.8-0.1,8.7-0.1c0.8,0,1.5,0,2.3,0c2.9,7.4,10.2,13.1,18.3,13.2c2.5,0,5,0,7.5,0c4.3,0,8.6,0,12.9,0
		c3.1-4,6.1-8.1,9.2-12.1c-2.8,0-9.7,0-16.2,0c0.5-0.4,1.8-1.5,2.4-1.9c3.6-0.1,7-0.1,10.4-0.1c4.5,0,8.9,0,13.6,0.1
		c3.2-4.2,6.4-8.4,9.6-12.5c-1.9,0-3.8,0-5.7,0c-4.1,0-8.3,0-12.4,0c-3.8,0-7.5,0-11.3,0.1c-3-7-10.1-12.4-17.8-12.4
		C36.4,11.1,32.8,11.1,29.1,11.1L29.1,11.1z M87.3,23.5L87.3,23.5L87.3,23.5z M67.6,37.8L67.6,37.8L67.6,37.8z"/>
</g>
<path class="st1" d="M17.6,15.7c5.4,0,7.3-0.1,14.4-0.1c4.8,0.1,10-0.7,14.4,1.9c4.3,2.2,7.2,6.7,8,11.4c7.5,0,15.1,0,22.6,0"/>
<path class="st2" d="M36,21.5c-4.6,1.3-7.9,6.5-6.4,11.2c0.9,3.9,4.6,6.8,8.5,7c5.2,0.6,10.2-3.6,10.4-8.8C49,24.5,42,19.4,36,21.5z
	"/>
<line class="st1" x1="63.2" y1="42" x2="54.5" y2="42"/>
<line class="st1" x1="24.6" y1="28.8" x2="15.9" y2="28.8"/>
<line class="st1" x1="21.5" y1="32.6" x2="12.9" y2="32.6"/>
<line class="st1" x1="60.3" y1="46" x2="51.6" y2="46"/>
<line class="st1" x1="19" y1="19.4" x2="10.3" y2="19.4"/>
<path class="st0" d="M38.4,29.8c0,0-2-0.6-2.7-1.9c-0.7-1.3,0.8-3.4,1.6-4.1c-1.3,0.3-3.7,1.4-4.7,4.2c1.1,1.9,2.7,4.7,2.7,4.7
	l0.6-2.1l2.7,0.9l0,0c0,0,0.5,2-0.2,3.3c-0.7,1.3-3.4,1.1-4.3,0.7c1,0.9,3.1,2.5,6,1.9c1.1-1.9,2.7-4.7,2.7-4.7l-2.2,0.6L40,30.4
	l0,0c0,0,1.5-1.4,3-1.4c1.5,0,2.6,2.4,2.7,3.4c0.4-1.3,0.6-4-1.3-6.1c-2.2,0-5.4,0-5.4,0l1.5,1.6L38.4,29.8L38.4,29.8z"/>
</svg>
