<?xml version="1.0" encoding="utf-8"?>
<!-- Generator: Adobe Illustrator 24.0.1, SVG Export Plug-In . SVG Version: 6.00 Build 0)  -->
<svg version="1.1" id="Layer_1" xmlns="http://www.w3.org/2000/svg" xmlns:xlink="http://www.w3.org/1999/xlink" x="0px" y="0px"
	 viewBox="0 0 800 800" style="enable-background:new 0 0 800 800;" xml:space="preserve">
<path d="M706.9,499.1c-7-22.5-16.5-48.7-26.2-73.9c0,0,0,0,0,0c0,0,0,0,0,0l-35.3-88c0-1,0.5-18.4,0.5-27.3
	C645.9,159.3,574.8,8,400,8C225.2,8,154.1,159.3,154.1,309.9c0,8.9,0.4,26.3,0.5,27.3c0,0,0,0,0,0c0,0,0,0,0,0l-35.3,88c0,0,0,0,0,0
	c0,0,0,0,0,0c-9.7,25.2-19.2,51.4-26.2,73.9C59.8,606.4,70.6,650.8,78.8,651.8c17.6,2.1,68.7-80.8,68.7-80.8
	c0,48,24.7,110.6,78.2,155.9c-20,6.2-44.5,15.6-60.3,27.3c-14.2,10.5-12.4,21.1-9.8,25.4c11.2,18.9,192.2,12.1,244.4,6.2h0
	c52.3,5.9,233.2,12.7,244.4-6.2c2.6-4.3,4.3-15-9.8-25.4c-15.8-11.6-40.3-21.1-60.3-27.3c53.5-45.2,78.2-107.9,78.2-155.9
	c0,0,51,82.9,68.7,80.8C729.4,650.8,740.2,606.4,706.9,499.1z M421.6,166.3c1.3-34.4,21.5-61.4,45.2-60.3
	c23.7,1.1,41.9,29.8,40.6,64.1c-1.3,34.3-21.5,61.4-45.2,60.3C438.5,229.4,420.3,200.7,421.6,166.3z M333.2,106
	c23.7-1.1,43.9,25.9,45.2,60.3c1.3,34.4-16.9,63.1-40.6,64.1c-23.7,1.1-44-25.9-45.2-60.3C291.3,135.8,309.4,107.1,333.2,106z
	 M250.4,278.9c6.3-14,70.2-29.7,149.2-29.7h0.9c79,0,142.8,15.6,149.2,29.7v0c0.3,0.6,0.5,1.3,0.5,2c0,1-0.3,1.9-0.9,2.7
	c-5.3,7.8-76.2,46.2-148.7,46.2h-0.9c-72.5,0-143.4-38.5-148.7-46.2c-0.6-0.8-0.9-1.7-0.9-2.7C250,280.2,250.1,279.6,250.4,278.9z
	 M590.9,560.6c-7.2,120.1-78.5,195.6-188.6,196.7h-4.5c-110.1-1.1-181.4-76.6-188.6-196.7c-2.6-44.1,0-81.5,4.8-112
	c10.4,2.1,20.8,4,31.3,5.7v114.5c0,0,54.1,10.9,108.4,3.4V466.8c16,0.9,31.4,1.3,45.9,1.1h0.8c54.8,0.7,121.3-6.7,185.6-19.4
	C590.8,479,593.5,516.5,590.9,560.6z M439.8,182.4c-1.3,1.4-3.6,1.9-5.8,0.2c-2.2-1.7-3.1-5.1-1.8-7.4c2.1-3.8,16.4-23.5,45.9-16.3
	c7.8,1.9,11.4,4.7,12.1,5.8c1.1,1.6,1.4,3.9,0.3,7c-2.2,6.1-6.9,6-9.4,4.8C479.3,175.6,458.7,161.9,439.8,182.4z M329.8,175.4
	c-1.1-13.6,6.4-25.6,16.6-26.9c10.3-1.3,19.5,8.6,20.5,22.2l0,0c1.1,13.6-6.4,25.6-16.6,26.9C340.1,198.9,330.9,189,329.8,175.4z"/>
</svg>
