<?xml version="1.0" encoding="utf-8"?>
<!-- Generator: Adobe Illustrator 24.0.1, SVG Export Plug-In . SVG Version: 6.00 Build 0)  -->
<svg version="1.1" id="Layer_1" xmlns="http://www.w3.org/2000/svg" xmlns:xlink="http://www.w3.org/1999/xlink" x="0px" y="0px"
	 viewBox="0 0 32 32" style="enable-background:new 0 0 32 32;" xml:space="preserve">
<path style="fill:#FF4500;" d="M27.2,10.8c-1.1,0-2,0.4-2.8,1c-2.1-1.3-4.8-2.1-7.7-2.2c0,0,0,0,0,0c0-2,1.5-3.6,3.4-3.8
	c0.3,1.4,1.6,2.5,3.2,2.5c1.8,0,3.3-1.5,3.3-3.3c0-1.8-1.5-3.3-3.3-3.3c-1.6,0-2.9,1.1-3.2,2.6c-2.7,0.3-4.8,2.5-4.8,5.2
	c0,0,0,0,0,0c-2.9,0.1-5.6,0.9-7.6,2.2c-0.8-0.6-1.7-1-2.8-1c-2.5,0-4.6,2.1-4.6,4.6c0,1.8,1.1,3.4,2.7,4.2c0.1,5.4,6,9.7,13.1,9.7
	c7.2,0,13-4.3,13.1-9.7c1.6-0.7,2.6-2.3,2.6-4.2C31.8,12.9,29.7,10.8,27.2,10.8z M7.4,18.1c0.1-1.7,1.2-2.7,2.5-2.7
	c1.3,0,2.3,1.4,2.2,3c0,0,0,0,0,0v0c0,0,0,0,0,0c-0.1,1.7-1.2,2.3-2.5,2.3C8.4,20.7,7.4,19.8,7.4,18.1z M20.9,22.7
	c-0.8,1.9-2.7,3.2-4.9,3.2s-4.1-1.3-4.9-3.2c-0.1-0.2,0.1-0.5,0.3-0.5c1.4-0.1,3-0.2,4.6-0.2c1.6,0,3.1,0.1,4.6,0.2
	C20.8,22.2,21,22.5,20.9,22.7z M22.4,20.7c-1.3,0-2.4-0.6-2.5-2.3c0,0,0,0,0,0v0c0,0,0,0,0,0c-0.1-1.7,0.9-3,2.2-3
	c1.3,0,2.4,1.1,2.5,2.7C24.7,19.8,23.7,20.7,22.4,20.7z"/>
</svg>
