<?xml version="1.0" encoding="utf-8"?>
<!-- Generator: Adobe Illustrator 24.0.1, SVG Export Plug-In . SVG Version: 6.00 Build 0)  -->
<svg version="1.1" id="Layer_1" xmlns="http://www.w3.org/2000/svg" xmlns:xlink="http://www.w3.org/1999/xlink" x="0px" y="0px"
	 viewBox="0 0 32 32" style="enable-background:new 0 0 32 32;" xml:space="preserve">
<g>
	<path style="fill:#FF4500;" d="M16,0C7.2,0,0,7.2,0,16c0,4.4,1.8,8.4,4.7,11.3l-3,3C1,31,1.5,32,2.3,32H16c8.8,0,16-7.2,16-16
		S24.8,0,16,0z M26.7,19.2c-0.1,4.3-4.8,7.8-10.7,7.8c-5.8,0-10.5-3.5-10.7-7.8c-1.3-0.6-2.2-1.9-2.2-3.4c0-2.1,1.7-3.7,3.7-3.7
		c0.9,0,1.6,0.3,2.3,0.8c1.7-1.1,3.9-1.7,6.2-1.8c0,0,0,0,0,0c0-2.2,1.7-4,3.9-4.3c0.2-1.2,1.3-2.1,2.6-2.1c1.5,0,2.6,1.2,2.6,2.6
		c0,1.5-1.2,2.6-2.6,2.6c-1.2,0-2.3-0.9-2.6-2c-1.5,0.2-2.7,1.5-2.7,3.1c0,0,0,0,0,0c2.4,0.1,4.6,0.7,6.3,1.8
		c0.6-0.5,1.4-0.8,2.3-0.8c2.1,0,3.7,1.7,3.7,3.7C28.8,17.3,27.9,18.6,26.7,19.2z"/>
	<path style="fill:#FF4500;" d="M12.9,18.3c0.1-1.3-0.7-2.5-1.8-2.5c-1,0-1.9,0.9-2,2.2c-0.1,1.3,0.7,2.1,1.8,2.1
		C11.9,20.1,12.8,19.6,12.9,18.3z"/>
	<path style="fill:#FF4500;" d="M19.7,21.4c-1.2-0.1-2.4-0.2-3.7-0.2c-1.3,0-2.5,0.1-3.7,0.2c-0.2,0-0.3,0.2-0.2,0.4
		c0.6,1.5,2.2,2.6,3.9,2.6s3.3-1.1,3.9-2.6C20,21.6,19.9,21.4,19.7,21.4z"/>
	<path style="fill:#FF4500;" d="M20.9,15.8c-1,0-1.8,1.1-1.8,2.5c0.1,1.3,1,1.8,2,1.8s1.8-0.7,1.8-2.1C22.9,16.7,22,15.8,20.9,15.8z
		"/>
</g>
</svg>
