<?xml version="1.0" encoding="utf-8"?>
<!-- Generator: Adobe Illustrator 24.0.1, SVG Export Plug-In . SVG Version: 6.00 Build 0)  -->
<svg version="1.1" id="Layer_1" xmlns="http://www.w3.org/2000/svg" xmlns:xlink="http://www.w3.org/1999/xlink" x="0px" y="0px"
	 viewBox="0 0 500 500" style="enable-background:new 0 0 500 500;" xml:space="preserve">
<path style="fill:#34AADF;" d="M250.5,2.2C113.6,2.2,2.7,113.1,2.7,250s111,247.8,247.8,247.8s247.8-111,247.8-247.8
	S387.4,2.2,250.5,2.2z M368.7,163.3c-0.7,10-6.4,45.1-12.2,83.1c-8.6,53.7-17.9,112.5-17.9,112.5s-1.4,16.5-13.6,19.3
	c-12.2,2.9-32.2-10-35.8-12.9c-2.9-2.1-53.7-34.4-72.3-50.1c-5-4.3-10.7-12.9,0.7-22.9c25.8-23.6,56.6-53,75.2-71.6
	c8.6-8.6,17.2-28.7-18.6-4.3c-50.9,35.1-101,68-101,68s-11.5,7.2-32.9,0.7c-21.5-6.4-46.6-15-46.6-15s-17.2-10.7,12.2-22.2
	c0,0,123.9-50.9,166.9-68.8C289.2,171.9,345,149,345,149S370.8,139,368.7,163.3z"/>
</svg>
