<?xml version="1.0" encoding="utf-8"?>
<!-- Generator: Adobe Illustrator 24.0.1, SVG Export Plug-In . SVG Version: 6.00 Build 0)  -->
<svg version="1.1" id="Layer_1" xmlns="http://www.w3.org/2000/svg" xmlns:xlink="http://www.w3.org/1999/xlink" x="0px" y="0px"
	 viewBox="0 0 16 12" style="enable-background:new 0 0 16 12;" xml:space="preserve">
<g>
	<defs>
		<circle id="SVGID_1_" cx="8" cy="6" r="6"/>
	</defs>
	<use xlink:href="#SVGID_1_"  style="overflow:visible;fill:#03AA6F;"/>
	<clipPath id="SVGID_2_">
		<use xlink:href="#SVGID_1_"  style="overflow:visible;"/>
	</clipPath>
	<path style="clip-path:url(#SVGID_2_);fill:#86DAF1;" d="M2.3,4.4l0.7,0.1c0.1,0,0.1,0,0.2,0.1L3.7,5C3.7,5,3.8,5.1,3.9,5.1l0.4,0
		c0.2,0,0.3-0.2,0.3-0.3V4.6c0-0.1-0.1-0.2-0.2-0.3L4.3,4.3C4.2,4.2,4.2,4.2,4.2,4v0c0-0.2,0.1-0.3,0.3-0.3h0.6c0.1,0,0.1,0,0.2,0
		l0.9-0.5c0.1,0,0.1-0.1,0.1-0.2l0.2-0.7C6.5,2.1,6.6,2,6.8,2h0.3c0.2,0,0.3-0.1,0.3-0.3V1.5c0-0.1-0.1-0.3-0.2-0.3L6.4,1
		C6.3,1,6.2,0.9,6.2,0.9L5.9,0.6C5.8,0.4,5.9,0.2,6.1,0.1l1.1-0.4c0,0,0.1,0,0.1,0L9.8,0c0.3,0,0.4,0.5,0,0.6L9.2,0.8
		C9.1,0.8,9,0.9,9,1L8.9,1.3C8.8,1.4,9,1.6,9.2,1.7l0.8,0.1c0,0,0.1,0,0.1,0l0.2-0.1c0.1,0,0.2,0,0.3,0.1L11,2.1
		c0.1,0.1,0.1,0.1,0.2,0.1l1.9-0.1c0.1,0,0.2,0,0.3,0.1l0.4,0.5c0.1,0.2,0,0.4-0.2,0.5l-0.3,0.1c0,0,0,0,0,0l-1,0.5
		c-0.1,0-0.1,0-0.2,0l-1.6-0.4c-0.1,0-0.2-0.1-0.2-0.1L10,2.7C9.9,2.6,9.8,2.6,9.7,2.6l-0.3,0c-0.1,0-0.1,0-0.2,0l-1,0.6
		C8.1,3.3,8.1,3.4,8.1,3.5l0.1,1c0,0.1,0.1,0.2,0.1,0.2l0.9,0.7c0.1,0.1,0.2,0.1,0.3,0.1l0.8-0.2c0.1,0,0.2,0,0.3,0.1l0.3,0.4
		C11,5.9,11,6.1,11,6.2l-0.3,0.5c0,0,0,0.1,0,0.2l0,1.1c0,0.1,0.1,0.2,0.2,0.3l0.4,0.1c0.1,0,0.2,0.2,0.2,0.3l0,0.6
		c0,0.1,0.1,0.2,0.2,0.3l0.6,0.4c0.2,0.1,0.2,0.3,0.1,0.5l-1.1,1.5C11.1,11.9,11,12,10.9,12l-4.7,0.3c-0.2,0-0.4-0.2-0.3-0.4
		l0.4-1.3c0-0.1,0.1-0.2,0.2-0.2l0.7-0.2c0.1,0,0.2-0.2,0.2-0.3l0-0.4c0-0.1,0.1-0.2,0.2-0.3l0.6-0.3c0,0,0.1-0.1,0.1-0.1L8.9,8
		C9,7.9,9,7.9,9,7.8l0-0.6C9,7.1,8.9,7,8.7,6.9L8.2,6.8C8.1,6.7,8,6.7,8,6.6L7.5,5.8C7.4,5.7,7.3,5.6,7.2,5.6L6,5.6
		c-0.1,0-0.1,0-0.2-0.1L5.5,5.2c-0.1-0.1-0.2-0.1-0.4,0L3.8,5.9C3.7,5.9,3.6,6,3.6,6.2l0,0.7c0,0.1,0.1,0.2,0.2,0.3l0.3,0.2
		c0.1,0,0.1,0.1,0.2,0.2l0.1,0.4c0,0.1,0.1,0.2,0.2,0.2l0.6,0.2c0.1,0,0.2,0.1,0.2,0.2l0.1,0.3c0,0.1,0,0.2,0,0.3L4.8,9.9
		c-0.1,0.1-0.1,0.2-0.1,0.3l0.1,0.6c0.1,0.3-0.3,0.5-0.5,0.3L2.4,9.6C2.4,9.6,2.3,9.5,2.3,9.4l-0.5-4c0,0,0-0.1,0-0.1L2,4.6
		C2,4.4,2.2,4.3,2.3,4.4z"/>
</g>
</svg>
