<svg version="1.1" id="Layer_1" xmlns="http://www.w3.org/2000/svg" x="0" y="0" viewBox="0 0 16 12" xml:space="preserve">
  <path d="M0 0v12h16V0H0z" fill-rule="evenodd" clip-rule="evenodd" fill="#f7fcff"/>
  <path d="M7.9 9.3c1.7 0 3.1-1.4 3.1-3.2C11 4.4 9.6 3 7.9 3S4.8 4.4 4.8 6.1c0 1.8 1.4 3.2 3.1 3.2z" fill-rule="evenodd" clip-rule="evenodd" fill="#3d58db"/>
  <path d="M11 6.2s-.1-1.3-1.3-1.4C8.3 4.7 8 5.9 7.9 6.2c0 .3-.2 1.1-1.6 1.1S4.8 6.1 4.8 6.1C4.8 4.9 5.6 3 8 3c1.7 0 3 1.4 3 3.2z" fill-rule="evenodd" clip-rule="evenodd" fill="#e31d1c"/>
  <path class="st3" d="m3.7 1 .5.4L2 3.9l-.5-.4S3.6 1 3.7 1zm.7.7.5.4-2 2.4-.5-.4 2-2.4zm1.2 1.1-.4-.4-2 2.5.5.4c-.1-.1 1.9-2.5 1.9-2.5z"/>
  <path class="st4" d="M4.1 1.4h.1-.1zM3.6 1V.9 1zM2 3.9V4v-.1zm-.5-.4h-.1.1zm3.4-1.4H5h-.1zm-.5-.4v-.1.1c-.1-.1 0 0 0 0zM2.8 4.6v.1-.1zm-.4-.5h-.1.1zm2.8-1.7v-.1.1zm.4.4h.1-.1zm-2.5 2H3h.1c0 .1 0 0 0 0zm.5.4v.1-.1zm.6-3.8L3.7 1l-.1.1.5.4.1-.1zM2 4l2.1-2.5v-.1L1.9 3.9 2 4zm-.5-.4.4.4.1-.1-.4-.5-.1.2zM3.6 1 1.5 3.5l.1.1 2.1-2.5-.1-.1zm1.3 1.1-.4-.5-.1.2.5.4c-.1 0 0-.1 0-.1zm-2 2.5 2-2.4-.1-.1-2 2.4.1.1zm-.6-.4.5.4.1-.1-.5-.4-.1.1zm2-2.6L2.3 4l.1.1 2-2.4-.1-.1zm.8.8.5.4.1-.1-.5-.4-.1.1zM3.2 4.9l2.1-2.5-.2-.1L3 4.8l.2.1zm.4.3-.4-.4-.1.1.5.4v-.1zm2-2.5-2 2.5.1.1 2-2.5-.1-.1z"/>
  <path class="st3" d="m12.3 1-.5.4L14 3.9l.5-.4L12.3 1zm-.8.7-.5.4 2 2.4.5-.4-2-2.4zm-1.2 1.1.5-.4 2.1 2.5-.5.4-2.1-2.5z"/>
  <path class="st4" d="M11.8 1.4h-.1.1zm.5-.4V.9 1zM14 3.9V4v-.1zm.4-.4h.1-.1zm-3.3-1.4H11h.1zm.4-.4v-.1.1c.1-.1 0 0 0 0zm1.6 2.9v.1-.1zm.5-.5h.1-.1zm-2.8-1.7v-.1.1zm-.5.4h-.1.1c0-.1 0 0 0 0zm2.5 2h.1-.1c.1.1 0 0 0 0zm-.4.4v.1-.1zm-.6-3.8.4-.4.1.1-.5.4v-.1zM13.9 4l-2.1-2.5.1-.1L14 3.9l-.1.1zm.6-.4L14 4l-.1-.1.5-.4.1.1zM12.4 1l2.1 2.5-.1.1-2.1-2.5.1-.1zM11 2.1l.5-.4.1.1-.5.4-.1-.1zm2.1 2.5-2-2.4.1-.1 2 2.4-.1.1zm.5-.4-.5.4-.1-.1.5-.4.1.1zm-2-2.6 2 2.4-.1.1-2-2.4.1-.1zm-.8.8-.5.4-.1-.1.5-.4.1.1zm2 2.5-2.1-2.5.1-.1 2.1 2.5-.1.1zm-.5.3.5-.4.1.1-.5.4-.1-.1zm-1.9-2.5 2.1 2.5-.1.1-2.1-2.5.1-.1z"/>
  <path class="st3" d="m3.7 11.2.5-.4L2 8.4l-.5.4s2.1 2.4 2.2 2.4zm.7-.6.5-.4-2-2.4-.5.3 2 2.5zm1.2-1.1-.4.4-2-2.5.4-.4 2 2.5z"/>
  <path class="st4" d="M4.1 10.8h.1-.1zm-.5.4v.1-.1zM2 8.4v-.1.1zm-.5.4h-.1.1zm3.4 1.4H5h-.1zm-.5.4v.1-.1c-.1 0 0 0 0 0zM2.8 7.7v-.1.1zm-.4.4h-.1.1zm2.8 1.8v.1-.1zm.4-.4h.1-.1zM3.1 7.4H3h.1zm.5-.4v-.1.1zm.6 3.9-.5.4-.1-.1.5-.4.1.1zM2 8.3l2.1 2.5-.1.1-2.1-2.5.1-.1zm-.5.4.5-.4v.1l-.4.4-.1-.1zm2.1 2.6L1.5 8.8l.1-.1 2.1 2.5-.1.1zm1.3-1.1-.5.4-.1-.1.5-.4.1.1zm-2-2.5 2 2.4-.1.1-2-2.4.1-.1zm-.6.4.5-.4.1.1-.5.4-.1-.1zm2 2.5-2-2.4.1-.1 2 2.4-.1.1zm.8-.8.5-.4.1.1-.5.5-.1-.2zM3.2 7.4l2.1 2.5h-.2L3 7.5l.2-.1zm.4-.3-.4.4-.1-.1.4-.4.1.1zm2 2.4L3.6 7l2 2.5z"/>
  <path class="st3" d="m12.3 11.2-.5-.4L14 8.4l.5.4-2.2 2.4zm-.8-.6-.5-.4 2-2.4.5.4-2 2.4zm-1.2-1.1.5.4 2.1-2.5-.5-.4-2.1 2.5z"/>
  <path class="st4" d="M11.8 10.8h-.1.1zm.5.4v.1-.1zM14 8.4v-.1.1zm.4.4h.1-.1zm-3.3 1.4H11h.1zm.4.4v.1-.1c.1 0 0 0 0 0zm1.6-2.9v-.1.1zm.5.4h.1-.1zm-2.8 1.8v.1-.1zm-.5-.4h-.1.1zm2.5-2.1h.1-.1c.1 0 0 0 0 0zm-.4-.4v-.1.1c-.1 0 0 0 0 0zm-.6 3.9.5.4.1-.1-.5-.4-.1.1zm2.1-2.6-2.1 2.5.1.1L14 8.4l-.1-.1zm.6.4-.5-.4-.1.1.5.4.1-.1zm-2.2 2.6 2.1-2.5-.1-.1-2.1 2.5.1.1zM11 10.2l.5.4.1-.1-.5-.4-.1.1zm2.1-2.5-2 2.4.1.1 2-2.4-.1-.1zm.5.4-.5-.4-.1.1.5.4.1-.1zm-2 2.5 2-2.4-.1-.1-2 2.4.1.1zm-.8-.8-.5-.4-.1.1.5.4.1-.1zm2-2.4-2 2.5.1.1L13 7.5l-.2-.1zm-.5-.3.5.4.1-.1-.5-.4-.1.1zm-1.9 2.4L12.5 7h-.2l-2.1 2.5h.2z"/>
</svg>
