<svg version="1.1" id="Layer_1" xmlns="http://www.w3.org/2000/svg" xmlns:xlink="http://www.w3.org/1999/xlink" x="0" y="0" viewBox="0 0 16 12" xml:space="preserve">
  <path d="M0 0v12h16V0H0z" clip-rule="evenodd" fill="#2e42a5"/>
  <defs>
    <path id="SVGID_1_" d="M0 0h9v7H0V0z"/>
  </defs>
  <clipPath id="SVGID_2_">
    <use xlink:href="#SVGID_1_" overflow="visible"/>
  </clipPath>
  <path clip-path="url(#SVGID_2_)" fill="#fff" d="m-1 6.5 2 .9L9 .9l1-1.3-2-.2-3.3 2.7L2 4l-3 2.5z"/>
  <path clip-path="url(#SVGID_2_)" fill="#f50100" d="m-.7 7.1 1 .5L9.7-.5H8.3l-9 7.6z"/>
  <path clip-path="url(#SVGID_2_)" fill="#fff" d="m10 6.5-2 .9L0 .9-1-.4l2-.2 3.3 2.8L7 4l3 2.5z"/>
  <path clip-path="url(#SVGID_2_)" fill="#f50100" d="m9.9 6.9-1 .5-4-3.4-1.2-.4-4.9-3.9H.2l4.9 3.8 1.3.5 3.5 2.9z"/>
  <path clip-path="url(#SVGID_2_)" clip-rule="evenodd" fill="#fff" d="M3.4 7.6v-3h-4V2.4h4v-3h2.2v3h4v2.2h-4v3z"/>
  <path d="M5 0H4v3H0v1h4v3h1V4h4V3H5V0z" clip-path="url(#SVGID_2_)" clip-rule="evenodd" fill="#f50100"/>
  <path d="m12.4 10.3-.9.5.2-1L11 9l1-.1.4-.9.4.9 1 .1-.7.7.2 1-.9-.4zm-1.8-3.4-.7.4.1-.8-.5-.5.8-.1.3-.7.3.7.8.1-.6.5.1.8-.6-.4zm3.5 0-.7.4.1-.8L13 6l.8-.1.3-.7.3.7.8.1-.6.5.1.8-.6-.4zm-1.5-2.8-.7.4.1-.8-.6-.5.8-.1.3-.7.3.7.8.1-.6.5.1.8-.5-.4z" clip-rule="evenodd" fill="#f50100"/>
</svg>
