<?xml version="1.0" encoding="utf-8"?>
<!-- Generator: Adobe Illustrator 24.0.1, SVG Export Plug-In . SVG Version: 6.00 Build 0)  -->
<svg version="1.1" id="Layer_1" xmlns="http://www.w3.org/2000/svg" xmlns:xlink="http://www.w3.org/1999/xlink" x="0px" y="0px"
	 viewBox="0 0 40 40" style="enable-background:new 0 0 40 40;" xml:space="preserve">
<g>
	<g>
		<path style="fill:#37EBAC;" d="M16.7,30.7c-3.2-0.3-4.8-2.3-5.1-5.8l4-1.1c0,2.2,0.9,3.3,3,3.3c0.9,0,1.7-0.2,2.2-0.7
			c0.5-0.4,0.8-1.1,0.9-1.7c0.1-0.7,0-1.3-0.4-1.6s-1.2-0.8-2.7-1.4c-1.2-0.5-2.3-1-3-1.5c-0.7-0.4-1.2-1.2-1.5-2
			c-0.3-0.8-0.4-1.8-0.2-3c0.2-1.5,0.9-2.9,2-4s2.6-1.9,4.4-2.2l0.3-2H8.3L4.1,33h12.2L16.7,30.7z"/>
		<path style="fill:#37EBAC;" d="M23.2,7l-0.3,2c2.7,0.3,4.2,1.9,4.5,4.9l-3.6,1.4c-0.3-2-1.2-3-2.6-3c-0.7,0-1.3,0.2-1.8,0.6
			c-0.5,0.4-0.8,1-0.9,1.6s0,1.2,0.4,1.5c0.3,0.3,1.1,0.7,2.4,1.3c1.3,0.5,2.5,1.1,3.2,1.6c0.7,0.5,1.3,1.2,1.7,2
			c0.3,0.8,0.4,1.9,0.2,3.1c-0.3,1.8-1,3.3-2.3,4.4s-2.9,1.9-4.8,2.1L18.9,33h13L36,7C36,7,23.2,7,23.2,7z"/>
	</g>
</g>
</svg>
