<?xml version="1.0" encoding="utf-8"?>
<!-- Generator: Adobe Illustrator 24.0.1, SVG Export Plug-In . SVG Version: 6.00 Build 0)  -->
<svg version="1.1" id="Layer_1" xmlns="http://www.w3.org/2000/svg" xmlns:xlink="http://www.w3.org/1999/xlink" x="0px" y="0px"
	 viewBox="0 0 40 40" style="enable-background:new 0 0 40 40;" xml:space="preserve">
<g>
	<path id="SVGID_1_" style="fill:#FFDD44;" d="M19.1,5.4l-15.9,26C2.8,32.1,3.3,33,4.1,33h31.8c0.8,0,1.3-0.9,0.9-1.6l-15.9-26
		C20.5,4.8,19.5,4.8,19.1,5.4z"/>
	<path style="fill:#0B2137;" d="M33.7,26.4c-0.1,0-3.2,0-4.3,0c-2.7,0-4-7.1-9.5-7.1s-6.6,7.1-9.5,7.1c-1,0-4.2,0-4.3,0l-3,5
		c-0.3,0.7,0.2,1.6,1,1.6h31.8c0.8,0,1.3-0.9,0.9-1.6L33.7,26.4z"/>
	<path style="fill:#FFDD44;" d="M35.9,34H4.1c-0.7,0-1.4-0.4-1.8-1.1c-0.4-0.7-0.4-1.5,0-2.1l15.9-26l0,0c0.4-0.6,1-1,1.8-1
		s1.4,0.4,1.8,1l15.9,26c0.4,0.6,0.4,1.4,0,2.1C37.3,33.6,36.6,34,35.9,34z M20,6L4.1,32h31.8L20,6L20,6z"/>
</g>
</svg>
