<?xml version="1.0" encoding="utf-8"?>
<!-- Generator: Adobe Illustrator 24.0.1, SVG Export Plug-In . SVG Version: 6.00 Build 0)  -->
<svg version="1.1" id="Layer_1" xmlns="http://www.w3.org/2000/svg" xmlns:xlink="http://www.w3.org/1999/xlink" x="0px" y="0px"
	 viewBox="0 0 40 40" style="enable-background:new 0 0 40 40;" xml:space="preserve">
<path id="grass_1_" style="fill:#28B459;" d="M33,21.6C32.5,29.1,26.7,35,19.4,35c-1.7,0-3.3-0.2-4.7-0.9
	C10.8,32.5,25.8,16,25.3,15.6C25,15.3,8.5,30.6,6.9,26.3c-0.5-1.4-0.8-3-0.8-4.6c0-7.4,5.4-12.8,13.6-13.5l14.2-0.9L33,21.6z"/>
<path id="wet_3_" style="fill:#2EC0FF;" d="M14,14.8c0,3.9-3.2,7-7,7s-7-3.1-7-7c0-1.1,0.3-2.1,0.7-3C1.9,9.5,7,2,7,2
	s5.1,7.5,6.3,9.9C13.7,12.8,14,13.8,14,14.8z"/>
</svg>
