<?xml version="1.0" encoding="utf-8"?>
<!-- Generator: Adobe Illustrator 24.0.1, SVG Export Plug-In . SVG Version: 6.00 Build 0)  -->
<svg version="1.1" id="Layer_1" xmlns="http://www.w3.org/2000/svg" xmlns:xlink="http://www.w3.org/1999/xlink" x="0px" y="0px"
	 viewBox="0 0 40 40" style="enable-background:new 0 0 40 40;" xml:space="preserve">
<g>
	<path style="fill:#0B2137;" d="M19.1,5.4l-15.9,26C2.8,32.1,3.3,33,4.1,33h31.8c0.8,0,1.3-0.9,0.9-1.6l-15.9-26
		C20.5,4.8,19.5,4.8,19.1,5.4z"/>
	<g>
		<path style="fill:#FFDD44;" d="M21.4,18.8c0-3.7-2.2-6.8-5.4-8.2l-0.7,1.2c0.2,0.1,0.4,0.2,0.6,0.3l-3.3,5.4l-0.4-0.7l-1.6,2.7
			h0.8L8,24.8c-0.2-0.1-0.3-0.3-0.5-0.4l-0.7,1.2c1.5,1.3,3.5,2.1,5.7,2.1C17.4,27.7,21.4,23.7,21.4,18.8z M17,12.8
			c1.7,1.2,2.8,3.1,3,5.3h-6.3L17,12.8z M20,19.5c-0.2,2.2-1.4,4.2-3.1,5.4l-3.1-5.4H20z M12.5,20.1l3.2,5.5c-1,0.4-2,0.7-3.1,0.7
			c-1.2,0-2.3-0.3-3.3-0.8L12.5,20.1z"/>
		<path style="fill:#FFDD44;" d="M25.9,25.2c0.9-1.9,1.5-4.1,1.5-6.4c0-5.8-3.3-11.2-8.2-13.6l-1.2,2c4.3,2.1,7.3,6.5,7.3,11.6
			c0,7.1-5.8,12.8-12.8,12.8c-2.9,0-5.6-1-7.8-2.7l-1.5,3.3c2.5,1.8,6,1.4,9.3,1.4c5.2,0,9.8-2.7,12.4-6.7l11.4,5.7l0.9-1.8
			L25.9,25.2z"/>
	</g>
	<path style="fill:#FFDD44;" d="M35.9,34H4.1c-0.7,0-1.4-0.4-1.8-1.1c-0.4-0.7-0.4-1.5,0-2.1l15.9-26l0,0c0.4-0.6,1-1,1.8-1
		s1.4,0.4,1.8,1l15.9,26c0.4,0.6,0.4,1.4,0,2.1C37.3,33.6,36.6,34,35.9,34z M20,6L4.1,32h31.8L20,6L20,6z"/>
</g>
</svg>
