<?xml version="1.0" encoding="utf-8"?>
<!-- Generator: Adobe Illustrator 24.0.1, SVG Export Plug-In . SVG Version: 6.00 Build 0)  -->
<svg version="1.1" id="Layer_1" xmlns="http://www.w3.org/2000/svg" xmlns:xlink="http://www.w3.org/1999/xlink" x="0px" y="0px"
	 viewBox="0 0 50 40" style="enable-background:new 0 0 50 40;" xml:space="preserve">
<g>
	<path style="fill:#05B2EC;" d="M8.8,13h17c0.5,0.1,0.7,0.6,0.5,1c-0.8,2.3-1.6,4.5-2.5,6.8c-0.2,0.7-0.8,1.3-1.6,1.4
		c-1,0-2.1,0-3.1,0c0.8,1.6,1.6,3.2,2.5,4.8h-4.5c-0.8-1.6-1.6-3.2-2.4-4.8c-1.8,0-3.6,0-5.5,0C8.6,23.8,8,25.4,7.4,27l0.1,0H3.7v0
		C5.4,22.3,7.1,17.7,8.8,13 M11.4,16c-0.4,1.1-0.8,2.2-1.2,3.2c3.5,0,7,0,10.4,0c0.4-1.1,0.8-2.2,1.2-3.2C18.4,16,14.9,16,11.4,16
		 M29.8,13h16.3c0.3,0,0.5,0.2,0.6,0.5v0.3c-1.3,3.6-2.6,7.3-4,10.9c-0.7-1.3-1.4-2.6-2-4c0-0.1-0.2-0.3-0.1-0.4
		c0.5-1.5,1.1-2.9,1.6-4.4c-3.5,0-7.1,0-10.6,0c-1,2.7-1.9,5.3-2.9,8c2.4,0,4.9,0,7.3,0c-0.8-1.6-1.6-3.2-2.4-4.8c1.5,0,3,0,4.4,0
		c1.3,2.6,2.6,5.2,4,7.8H24.7c-0.5-0.1-0.7-0.7-0.5-1.1c1.4-3.9,2.9-7.9,4.3-11.8C28.8,13.5,29.3,13.2,29.8,13L29.8,13z"/>
</g>
</svg>
