<?xml version="1.0" encoding="utf-8"?>
<!-- Generator: Adobe Illustrator 24.0.1, SVG Export Plug-In . SVG Version: 6.00 Build 0)  -->
<svg version="1.1" id="Layer_1" xmlns="http://www.w3.org/2000/svg" xmlns:xlink="http://www.w3.org/1999/xlink" x="0px" y="0px"
	 viewBox="0 0 40 40" style="enable-background:new 0 0 40 40;" xml:space="preserve">
<path id="water_2_" style="fill:#316BE7;" d="M29.9,20.2C28.1,16.6,20,4.7,20,4.7s-8.1,11.9-9.9,15.6C9.4,21.7,9,23.3,9,25
	c0,6,4.9,10.9,11,10.9S31,31,31,25C31,23.3,30.6,21.7,29.9,20.2z M20.1,32.7c-4.2,0-7.7-3.4-7.7-7.6c0-3.3,2.1-6.1,5.1-7.2
	c-0.9,1.2-1.5,2.8-1.5,4.4c0,4.1,3.4,7.5,7.5,7.5c1.1,0,2.1-0.2,3-0.6C25.2,31.3,22.8,32.7,20.1,32.7z"/>
</svg>
