<?xml version="1.0" encoding="utf-8"?>
<!-- Generator: Adobe Illustrator 24.0.1, SVG Export Plug-In . SVG Version: 6.00 Build 0)  -->
<svg version="1.1" id="Layer_1" xmlns="http://www.w3.org/2000/svg" xmlns:xlink="http://www.w3.org/1999/xlink" x="0px" y="0px"
	 viewBox="0 0 40 40" style="enable-background:new 0 0 40 40;" xml:space="preserve">
<path style="fill:#15DFFF;" d="M9.9,11h4.1l1.4,5.4l5.4-5.4c0,0,4.4,0,10.4,0s6,4.3,4.8,6.9c-1.3,2.5-3.6,4.8-8,4.8h-3
	c-0.4,1.3-2.1,6-2.1,6l-1.3-6l1.3-2.9c0,0,2.8,0,5.7,0c2,0,3.5-1.1,4.4-2.5c0.1-1.4,0-3-2.3-3c-4.8,0-8.5,0-8.5,0l-5.9,5.9l2.1,8.7
	h-4.1l-1.3-5.3l-5.2,5.3H3.3l8.8-8.9L9.9,11z"/>
</svg>
