<?xml version="1.0" encoding="utf-8"?>
<!-- Generator: Adobe Illustrator 24.0.1, SVG Export Plug-In . SVG Version: 6.00 Build 0)  -->
<svg version="1.1" id="Layer_1" xmlns="http://www.w3.org/2000/svg" xmlns:xlink="http://www.w3.org/1999/xlink" x="0px" y="0px"
	 viewBox="0 0 23 23" style="enable-background:new 0 0 23 23;" xml:space="preserve">
<path d="M21,9.9c-0.1-0.4-0.5-0.7-0.8-0.7c-0.5,0.1-1,0.3-1.5,0.4l-1.6-3.9c-0.1-0.3-0.2-0.6-0.4-0.9c-0.3-0.4-0.8-0.7-1.2-0.7
	L12.2,4c-1.5,0-3,0-4.6,0.1c-0.5,0-0.9,0.3-1.2,0.7C6.2,5.1,6.1,5.4,6,5.7C5.4,7,4.9,8.3,4.3,9.6C3.9,9.5,3.4,9.4,3,9.3
	C2.6,9.2,2.2,9.4,2.1,9.9c-0.1,0.4,0.1,0.9,0.4,1.1c0.4,0.1,0.7,0.2,1.1,0.3c-0.1,0.2-0.2,0.4-0.2,0.7c0,2.3-0.1,4.7-0.1,7
	c0,0.5,0.4,0.9,0.8,0.9c0.7,0,1.5,0,2.2,0c0.4,0,0.7-0.4,0.8-0.9c0-0.4,0-0.6,0-1c3,0,6,0,8.9,0c0,0.4,0,0.6,0,1
	c0,0.5,0.4,0.9,0.8,0.9c0.7,0,1.5,0,2.2,0c0.4,0,0.8-0.5,0.7-1c0-2.3,0-4.6-0.1-7c0-0.2-0.1-0.4-0.2-0.7c0.3-0.1,0.7-0.2,1-0.3
	C20.8,10.9,21.1,10.4,21,9.9z M6.3,9.9c-0.2,0-0.5-0.1-0.6-0.4C5.6,9.3,5.8,9,5.8,8.8c0.4-1,0.7-2,1.2-2.9c0.2-0.3,0.4-0.6,0.7-0.6
	c1.6-0.2,3.3-0.3,4.9-0.2l2.7,0.2c0.3,0,0.5,0.3,0.7,0.6c0.5,0.9,0.8,1.9,1.2,2.9c0.1,0.2,0.2,0.5,0.1,0.7c-0.1,0.3-0.3,0.4-0.6,0.4
	c0,0-1-0.2-5.2-0.2S6.3,9.9,6.3,9.9z M7.9,14.5c-0.9,0-1.9,0-2.8,0c-0.2,0-0.5-0.1-0.6-0.3c-0.2-0.3-0.1-0.7-0.1-1
	c0-0.3,0.1-0.7,0.4-0.8c0.1-0.1,0.3,0,0.5,0c0.7,0.1,1.4,0.2,2.1,0.5c0.4,0.1,0.7,0.3,1,0.6C8.5,13.9,8.3,14.4,7.9,14.5z M12.9,17.1
	c-1,0-1.9,0-2.9,0c-0.2,0-0.3-0.3-0.3-0.5c0-0.3-0.1-0.7,0.2-0.8c1,0,1.9,0,2.9,0c0.2,0,0.3,0.3,0.3,0.5
	C13.2,16.5,13.3,17,12.9,17.1z M18.6,13.8c0,0.4-0.3,0.7-0.6,0.7c-0.9,0-1.9,0-2.8,0c-0.2,0-0.4-0.1-0.5-0.2
	c-0.1-0.2-0.1-0.5-0.1-0.7c0.4-0.3,0.8-0.5,1.2-0.7c0.7-0.2,1.4-0.4,2.2-0.5c0.3-0.1,0.6,0.2,0.6,0.6C18.6,13.2,18.6,13.5,18.6,13.8
	z"/>
</svg>
