<?xml version="1.0" encoding="utf-8"?>
<!-- Generator: Adobe Illustrator 24.0.1, SVG Export Plug-In . SVG Version: 6.00 Build 0)  -->
<svg version="1.1" id="Layer_1" xmlns="http://www.w3.org/2000/svg" xmlns:xlink="http://www.w3.org/1999/xlink" x="0px" y="0px"
	 viewBox="0 0 23 23" style="enable-background:new 0 0 23 23;" xml:space="preserve">
<path d="M17.7,10.6c0-0.1,0-0.3,0-0.5c0-1.5-1.3-2.8-2.8-2.8c-0.6,0-1.1,0.2-1.5,0.5c-0.8-1.4-2.3-2.3-4-2.3c-2.5,0-4.6,2.1-4.6,4.6
	c0,0.2,0,0.4,0,0.6c-1.7,0.6-2.9,2.2-2.9,4v0C2,17.1,3.9,19,6.3,19h10.5c2.4,0,4.3-1.9,4.3-4.3v0C21,12.7,19.6,11,17.7,10.6z"/>
</svg>
