<?xml version="1.0" encoding="utf-8"?>
<!-- Generator: Adobe Illustrator 24.0.1, SVG Export Plug-In . SVG Version: 6.00 Build 0)  -->
<svg version="1.1" id="Layer_1" xmlns="http://www.w3.org/2000/svg" xmlns:xlink="http://www.w3.org/1999/xlink" x="0px" y="0px"
	 viewBox="0 0 23 23" style="enable-background:new 0 0 23 23;" xml:space="preserve">
<g>
	<path d="M11.3,4.6c0.3-0.1,0.7,0,0.9,0.3c1.2,2.2,2.4,4.3,3.5,6.5c1.4-0.7,2.9-1.4,4.3-2.2c0.2-0.1,0.5-0.1,0.7,0
		c0.3,0.2,0.4,0.5,0.3,0.8c-0.6,2.7-1.2,5.3-1.7,8c0,0.2-0.1,0.4-0.2,0.6c-0.1,0.2-0.4,0.3-0.6,0.3c-4.7,0-9.3,0-14,0
		c-0.3,0-0.7-0.3-0.7-0.6C3.2,15.7,2.6,13,2,10.3C2,10,2,9.8,2.1,9.6C2.3,9.3,2.7,9.1,3,9.3c1.4,0.7,2.9,1.4,4.3,2.2
		C8.5,9.3,9.6,7.2,10.8,5C10.9,4.8,11.1,4.7,11.3,4.6L11.3,4.6z"/>
</g>
</svg>
