<?xml version="1.0" encoding="utf-8"?>
<!-- Generator: Adobe Illustrator 24.0.1, SVG Export Plug-In . SVG Version: 6.00 Build 0)  -->
<svg version="1.1" id="Layer_1" xmlns="http://www.w3.org/2000/svg" xmlns:xlink="http://www.w3.org/1999/xlink" x="0px" y="0px"
	 viewBox="0 0 24 24" style="enable-background:new 0 0 24 24;" xml:space="preserve">
<g>
	<path style="fill:#6F6F6F;" d="M16.6,6.4c0.1-0.1,0.2-0.2,0.2-0.3c0-0.1,0-0.2,0-0.4c0-0.1,0-0.3-0.1-0.4c0-0.1-0.1-0.2-0.2-0.3
		c-0.1,0-0.1-0.1-0.2-0.1c0,0-0.1-0.1-0.2-0.1c-0.1,0-0.1-0.1-0.2-0.1c-0.1,0-0.1,0-0.2,0c-0.1,0-0.1,0-0.2,0c-0.1,0-0.1,0-0.2,0
		c-0.1,0-0.1,0-0.2,0.1c-0.1,0-0.1,0.1-0.2,0.2l-2,2.1V2.9c0-1-1.7-1.2-1.9,0.1v4.2L9,5C8.9,4.9,8.8,4.8,8.7,4.8
		c-0.1,0-0.3-0.1-0.4-0.1c-0.1,0-0.3,0-0.4,0.1C7.8,4.8,7.7,4.9,7.6,5C7.5,5.1,7.4,5.2,7.4,5.3c0,0.1-0.1,0.3-0.1,0.4
		c0,0.1,0,0.3,0.1,0.4c0,0.1,0.1,0.2,0.2,0.3l3.9,3.9c0.1,0.1,0.2,0.2,0.3,0.2c0.1,0,0.2,0,0.3,0c0.1,0,0.3,0,0.4-0.1
		c0.1,0,0.2-0.1,0.3-0.2L16.6,6.4L16.6,6.4z"/>
</g>
<g>
	<path style="fill:#6F6F6F;" d="M16.6,17.6l-3.8-3.9c-0.1-0.1-0.2-0.2-0.3-0.2c-0.1,0-0.2-0.1-0.4-0.1c-0.1,0-0.2-0.1-0.3,0
		c-0.1,0-0.2,0.1-0.3,0.2l-3.9,3.9c-0.1,0.1-0.2,0.2-0.2,0.3c0,0.1-0.1,0.2-0.1,0.4c0,0.1,0,0.3,0.1,0.4c0,0.1,0.1,0.2,0.2,0.3
		c0.1,0.1,0.2,0.2,0.3,0.2s0.2,0.1,0.4,0.1c0.1,0,0.3,0,0.4-0.1c0.1,0,0.2-0.1,0.3-0.2l2-2.1v4.2c0.2,1.3,1.9,1.1,1.9,0.1V17l2,2.1
		c0,0.1,0.1,0.1,0.2,0.2c0.1,0,0.1,0.1,0.2,0.1c0.1,0,0.1,0,0.2,0c0.1,0,0.1,0,0.2,0c0.1,0,0.1,0,0.2,0c0.1,0,0.1,0,0.2-0.1
		c0.1,0,0.1-0.1,0.2-0.1c0,0,0.1-0.1,0.2-0.1c0.1-0.1,0.2-0.2,0.2-0.3c0-0.1,0.1-0.2,0.1-0.4c0-0.1,0-0.3,0-0.4
		C16.8,17.9,16.7,17.7,16.6,17.6L16.6,17.6z"/>
</g>
</svg>
