<?xml version="1.0" encoding="utf-8"?>
<!-- Generator: Adobe Illustrator 24.0.1, SVG Export Plug-In . SVG Version: 6.00 Build 0)  -->
<svg version="1.1" id="Layer_1" xmlns="http://www.w3.org/2000/svg" xmlns:xlink="http://www.w3.org/1999/xlink" x="0px" y="0px"
	 viewBox="0 0 23 23" style="enable-background:new 0 0 23 23;" xml:space="preserve">
<path d="M21,12.6c0-0.4-0.3-0.7-0.6-0.9c-0.3-0.1-0.5-0.1-0.7-0.1c-0.8,0.1-1.5,0.4-2.1,1l0,0c-0.2,0.2-0.4,0.4-0.6,0.7
	c-0.3,0.4-0.7,0.8-1,1.2l0,0c-0.1,0.1-0.2,0.2-0.3,0.2l0,0c-0.2,0.1-0.5,0.1-0.6-0.1l0,0c-0.2-0.1-0.3-0.3-0.3-0.5c0-0.3,0-0.7,0-1
	c0-0.2,0-0.3,0-0.5c0-0.1,0-0.1,0-0.2c0,0,0-0.1,0-0.1c0.3-0.9,0.5-1.9,0.8-2.8c0.4-1.4,0.8-2.9,1.2-4.3c0.1-0.5,0-1-0.3-1.3
	c-0.4-0.4-0.9-0.5-1.4-0.3c-0.4,0.1-0.7,0.5-0.9,0.9l-0.7,2.3c-0.5,1.6-0.9,3.3-1.4,4.9l0,0c0,0,0,0,0,0l0,0c0,0,0,0,0,0l0,0v-8
	c0-0.4-0.2-0.8-0.5-1c-0.2-0.2-0.5-0.3-0.8-0.3l0,0h-0.2l0,0C9.9,2.3,9.4,2.9,9.4,3.5c0,1.4,0,2.8,0,4.2c0,1.2,0,2.4,0,3.6l0,0
	c0,0,0,0,0,0l0,0c0,0,0,0,0,0l0,0C9,10.2,8.7,9,8.3,7.8c-0.3-1-0.6-2.1-0.8-3.1C7.4,4.3,7.1,4,6.7,3.8C6.2,3.6,5.6,3.7,5.3,4.1
	C4.9,4.4,4.8,4.9,4.9,5.4L5.3,7c0.5,1.7,0.9,3.4,1.4,5.1c0,0,0,0.1,0,0.1c0,0,0,0.1,0,0.1c0,0,0,0,0,0l0,0c0,0,0,0,0,0
	c-0.8-1.4-1.6-2.8-2.4-4.2C4.1,7.9,3.9,7.7,3.7,7.6C3.3,7.4,2.8,7.5,2.5,7.7C2.2,7.9,2.1,8.2,2,8.6l0,0v0.2l0,0C2,9,2.1,9.2,2.2,9.3
	c0.3,0.6,0.7,1.1,1,1.7l0.5,0.8c0,0,0.1,0.1,0.1,0.1c0.1,0.2,0.2,0.4,0.3,0.6c0.5,1,0.8,2.1,0.8,3.1l0,0c0,0.4,0,0.8,0.1,1.2
	c0.2,1.2,0.9,2.3,1.9,3.1c0.8,0.6,1.9,1,2.9,1l1.2,0c1.5,0,2.9-0.6,3.9-1.6c0.9-0.9,1.8-1.8,2.6-2.7c1-1.1,2.1-2.2,3.1-3.2
	c0.2-0.2,0.3-0.4,0.3-0.7l0,0L21,12.6L21,12.6z"/>
</svg>
