<?xml version="1.0" encoding="utf-8"?>
<!-- Generator: Adobe Illustrator 24.0.1, SVG Export Plug-In . SVG Version: 6.00 Build 0)  -->
<svg version="1.1" id="Layer_1" xmlns="http://www.w3.org/2000/svg" xmlns:xlink="http://www.w3.org/1999/xlink" x="0px" y="0px"
	 viewBox="0 0 24 24" style="enable-background:new 0 0 24 24;" xml:space="preserve">
<g>
	<path style="fill:#6F6F6F;" d="M6.3,7.4l-3.9,3.8c-0.1,0.1-0.2,0.2-0.2,0.3c0,0.1-0.1,0.2-0.1,0.4c0,0.1-0.1,0.2,0,0.3
		c0,0.1,0.1,0.2,0.2,0.3l3.9,3.9c0.1,0.1,0.2,0.2,0.3,0.2c0.1,0,0.2,0.1,0.4,0.1c0.1,0,0.3,0,0.4-0.1c0.1,0,0.2-0.1,0.3-0.2
		c0.1-0.1,0.2-0.2,0.2-0.3c0-0.1,0.1-0.2,0.1-0.4c0-0.1,0-0.3-0.1-0.4c0-0.1-0.1-0.2-0.2-0.3l-2.1-2h4.2c1.3-0.2,1.1-1.9,0.1-1.9
		H5.6l2.1-2c0.1,0,0.1-0.1,0.2-0.2c0-0.1,0.1-0.1,0.1-0.2c0-0.1,0-0.1,0-0.2c0-0.1,0-0.1,0-0.2c0-0.1,0-0.1,0-0.2C8,8.1,8,8,7.9,7.9
		c0-0.1-0.1-0.1-0.1-0.2c0,0-0.1-0.1-0.1-0.2C7.6,7.5,7.5,7.4,7.4,7.4C7.3,7.3,7.2,7.3,7,7.3c-0.1,0-0.3,0-0.4,0
		C6.5,7.3,6.4,7.3,6.3,7.4L6.3,7.4z"/>
</g>
<g>
	<path style="fill:#6F6F6F;" d="M17.8,7.4c-0.1-0.1-0.2-0.2-0.3-0.2c-0.1,0-0.2,0-0.4,0c-0.1,0-0.3,0-0.4,0.1
		c-0.1,0-0.2,0.1-0.3,0.2c0,0.1-0.1,0.1-0.1,0.2c0,0-0.1,0.1-0.1,0.2c0,0.1-0.1,0.1-0.1,0.2c0,0.1,0,0.1,0,0.2c0,0.1,0,0.1,0,0.2
		c0,0.1,0,0.1,0,0.2c0,0.1,0,0.1,0.1,0.2c0,0.1,0.1,0.1,0.2,0.2l2.1,2h-4.2c-1,0-1.2,1.7,0.1,1.9h4.2l-2.1,2
		c-0.1,0.1-0.2,0.2-0.2,0.3c0,0.1-0.1,0.3-0.1,0.4c0,0.1,0,0.3,0.1,0.4c0,0.1,0.1,0.2,0.2,0.3c0.1,0.1,0.2,0.2,0.3,0.2
		c0.1,0,0.3,0.1,0.4,0.1c0.1,0,0.3,0,0.4-0.1c0.1,0,0.2-0.1,0.3-0.2l3.9-3.9c0.1-0.1,0.2-0.2,0.2-0.3c0-0.1,0-0.2,0-0.3
		c0-0.1,0-0.3-0.1-0.4c0-0.1-0.1-0.2-0.2-0.3L17.8,7.4L17.8,7.4z"/>
</g>
</svg>
