<?xml version="1.0" encoding="utf-8"?>
<!-- Generator: Adobe Illustrator 24.0.1, SVG Export Plug-In . SVG Version: 6.00 Build 0)  -->
<svg version="1.1" id="Layer_1" xmlns="http://www.w3.org/2000/svg" xmlns:xlink="http://www.w3.org/1999/xlink" x="0px" y="0px"
	 viewBox="0 0 23 23" style="enable-background:new 0 0 23 23;" xml:space="preserve">
<rect x="8" y="2" width="7" height="3"/>
<path d="M17,4c-0.6,0-1,0.4-1,1s-0.4,1-1,1H8C7.4,6,7,5.6,7,5S6.6,4,6,4C4.9,4,4,4.9,4,6v13c0,1.1,0.9,2,2,2h11c1.1,0,2-0.9,2-2V6
	C19,4.9,18.1,4,17,4z M15,17H8v-1h7V17z M15,14H8v-1h7V14z M15,11H8v-1h7V11z"/>
</svg>
