<?xml version="1.0" encoding="utf-8"?>
<!-- Generator: Adobe Illustrator 24.0.1, SVG Export Plug-In . SVG Version: 6.00 Build 0)  -->
<svg version="1.1" id="Layer_1" xmlns="http://www.w3.org/2000/svg" xmlns:xlink="http://www.w3.org/1999/xlink" x="0px" y="0px"
	 viewBox="0 0 23 23" style="enable-background:new 0 0 23 23;" xml:space="preserve">
<path d="M7.7,19H6.3C5,19,4,18,4,16.7V6.3C4,5,5,4,6.3,4h1.3C9,4,10,5,10,6.3v10.3C10,18,9,19,7.7,19z"/>
<path d="M16.7,19h-1.3C14,19,13,18,13,16.7V6.3C13,5,14,4,15.3,4h1.3C18,4,19,5,19,6.3v10.3C19,18,18,19,16.7,19z"/>
</svg>
