<?xml version="1.0" encoding="utf-8"?>
<!-- Generator: Adobe Illustrator 24.0.1, SVG Export Plug-In . SVG Version: 6.00 Build 0)  -->
<svg version="1.1" id="Layer_1" xmlns="http://www.w3.org/2000/svg" xmlns:xlink="http://www.w3.org/1999/xlink" x="0px" y="0px"
	 viewBox="0 0 24 24" style="enable-background:new 0 0 24 24;" xml:space="preserve">
<g>
	<path style="fill:#6F6F6F;" d="M5.5,8.2C5.5,8.1,5.4,8.1,5.3,8.1c-0.1,0-0.2,0-0.3,0c-0.1,0-0.2,0-0.3,0.1c-0.1,0-0.2,0.1-0.3,0.2
		c0,0.1-0.1,0.1-0.1,0.1c0,0-0.1,0.1-0.1,0.1c0,0.1,0,0.1,0,0.2c0,0.1,0,0.1,0,0.2c0,0.1,0,0.1,0,0.2c0,0.1,0,0.1,0,0.2
		c0,0.1,0,0.1,0,0.2c0,0.1,0.1,0.1,0.1,0.1l1.7,1.7H2.5c-0.8,0-1,1.4,0.1,1.5h3.6l-1.7,1.7c-0.1,0.1-0.1,0.1-0.2,0.2
		c0,0.1-0.1,0.2-0.1,0.3c0,0.1,0,0.2,0.1,0.3c0,0.1,0.1,0.2,0.2,0.3c0.1,0.1,0.1,0.1,0.2,0.2c0.1,0,0.2,0.1,0.3,0.1
		c0.1,0,0.2,0,0.3-0.1c0.1,0,0.2-0.1,0.3-0.2l3.2-3.2C8.9,12.3,9,12.2,9,12.1C9,12,9,12,9,11.9c0-0.1,0-0.2,0-0.3
		c0-0.1-0.1-0.2-0.2-0.3L5.5,8.2L5.5,8.2z"/>
</g>
<g>
	<path style="fill:#6F6F6F;" d="M18.5,8.1l-3.2,3.1c-0.1,0.1-0.1,0.2-0.2,0.3c0,0.1,0,0.2,0,0.3c0,0.1-0.1,0.2,0,0.3
		c0,0.1,0.1,0.2,0.2,0.2l3.2,3.3c0.1,0.1,0.2,0.1,0.3,0.2c0.1,0,0.2,0.1,0.3,0.1c0.1,0,0.2,0,0.3-0.1c0.1,0,0.2-0.1,0.2-0.2
		c0.1-0.1,0.2-0.2,0.2-0.3c0-0.1,0.1-0.2,0.1-0.3c0-0.1,0-0.2-0.1-0.3c0-0.1-0.1-0.2-0.2-0.2l-1.7-1.7h3.6c1.1-0.1,0.9-1.6,0.1-1.6
		h-3.6l1.7-1.7c0.1,0,0.1-0.1,0.1-0.1c0-0.1,0-0.1,0-0.2c0-0.1,0-0.1,0-0.2c0-0.1,0-0.1,0-0.2c0-0.1,0-0.1,0-0.2c0-0.1,0-0.1,0-0.2
		c0-0.1-0.1-0.1-0.1-0.1c0,0-0.1-0.1-0.1-0.2c-0.1-0.1-0.2-0.1-0.3-0.2C19.3,8,19.2,8,19.1,8c-0.1,0-0.2,0-0.3,0
		C18.7,8,18.6,8.1,18.5,8.1L18.5,8.1z"/>
</g>
<rect x="5" y="11" transform="matrix(4.469498e-11 -1 1 4.469498e-11 -4.600952e-04 23.9995)" style="fill:#6F6F6F;" width="14" height="2"/>
</svg>
