<?xml version="1.0" encoding="utf-8"?>
<!-- Generator: Adobe Illustrator 24.0.1, SVG Export Plug-In . SVG Version: 6.00 Build 0)  -->
<svg version="1.1" id="Layer_1" xmlns="http://www.w3.org/2000/svg" xmlns:xlink="http://www.w3.org/1999/xlink" x="0px" y="0px"
	 viewBox="0 0 87.3 229.1" style="enable-background:new 0 0 87.3 229.1;" xml:space="preserve">
<linearGradient id="SVGID_2_" gradientUnits="userSpaceOnUse" x1="44.9335" y1="122.484" x2="44.9335" y2="116.3024">
	<stop  offset="0" style="stop-color:#D40613"/>
	<stop  offset="1" style="stop-color:#D40651"/>
</linearGradient>
<path style="fill:url(#SVGID_2_);" d="M50.6,121.9c0,0-6.5-2.4-11.3,0C39.3,121.9,46,123.2,50.6,121.9z"/>
<path style="fill:#7A707B;" d="M44.8,114.5c-0.1,0-1.3-0.2-1.4-0.2c0,0-0.1,0-0.1,0c2.4,20.6,5.1,45.2,3.1,60.7
	c-3.2,25.7-2.4,53.1-2.4,53.1l0.4-0.3c0,0-0.4-18.2,1.2-34.6c1.6-16.4,3.7-27.9,1.7-51C46.6,133.1,45.8,124.6,44.8,114.5z"/>
<linearGradient id="SVGID_3_" gradientUnits="userSpaceOnUse" x1="44.9335" y1="121.9345" x2="44.9335" y2="116.3025">
	<stop  offset="0" style="stop-color:#D40613"/>
	<stop  offset="1" style="stop-color:#D40651"/>
</linearGradient>
<path style="fill:url(#SVGID_3_);" d="M39.3,121.9c0,0,6.8-0.7,11.3,0c0,0-1-5.6-5.6-5.6S39.3,121.9,39.3,121.9z"/>
<radialGradient id="SVGID_4_" cx="43.6472" cy="59.0522" r="50.5349" fx="32.6982" fy="37.2619" gradientUnits="userSpaceOnUse">
	<stop  offset="1.795140e-02" style="stop-color:#FF5458"/>
	<stop  offset="0.1835" style="stop-color:#FC4A4E"/>
	<stop  offset="0.4647" style="stop-color:#F42F35"/>
	<stop  offset="0.6803" style="stop-color:#ED161D"/>
	<stop  offset="0.9143" style="stop-color:#BF0000"/>
</radialGradient>
<path style="fill:url(#SVGID_4_);" d="M86.3,59.1c0,32.1-19.1,58.1-42.6,58.1S1,91.1,1,59.1S20.1,1,43.6,1S86.3,27,86.3,59.1z"/>
<linearGradient id="SVGID_5_" gradientUnits="userSpaceOnUse" x1="135.7426" y1="59.1445" x2="196.7581" y2="117.9735" gradientTransform="matrix(0.8571 0 0 0.889 -104.2993 -35.42)">
	<stop  offset="0" style="stop-color:#FFE3FF;stop-opacity:0.4"/>
	<stop  offset="1" style="stop-color:#FFFFFF;stop-opacity:0"/>
</linearGradient>
<path style="fill:url(#SVGID_5_);" d="M55.3,87c24.6-3,29.4-37.9,26.1-51.1c-6-20.6-21.9-34.5-39-34.5C18.9,1.4,1.8,30.8,1.8,52.8
	c0,10,1.2,15.7,7.9,22.5C15.4,81,30.7,90,55.3,87z"/>
<radialGradient id="SVGID_6_" cx="45.419" cy="104.7237" r="25.0263" gradientUnits="userSpaceOnUse">
	<stop  offset="1.795140e-02" style="stop-color:#E85738"/>
	<stop  offset="0.1531" style="stop-color:#E44D33"/>
	<stop  offset="0.3833" style="stop-color:#DA3227"/>
	<stop  offset="0.6792" style="stop-color:#CA0613"/>
	<stop  offset="0.6803" style="stop-color:#CA0613"/>
	<stop  offset="1" style="stop-color:#D40651"/>
</radialGradient>
<path style="opacity:0.49;fill:url(#SVGID_6_);" d="M43.6,117.1c14.5,0,27.2-9.8,34.9-24.8c-17.3,32.5-51,26.9-66.3,6
	C20.1,109.9,31.2,117.1,43.6,117.1z"/>
</svg>
