<?xml version="1.0" encoding="utf-8"?>
<!-- Generator: Adobe Illustrator 24.0.1, SVG Export Plug-In . SVG Version: 6.00 Build 0)  -->
<svg version="1.1" id="Layer_1" xmlns="http://www.w3.org/2000/svg" xmlns:xlink="http://www.w3.org/1999/xlink" x="0px" y="0px"
	 viewBox="0 0 152.4 236.5" style="enable-background:new 0 0 152.4 236.5;" xml:space="preserve">
<path style="fill:#FFCD4F;" d="M5.5,234.8c-13.4-19.6,12-43.1,36.5-60.3C41.8,196.2,33.9,215.4,5.5,234.8z"/>
<path style="fill:#FFCD4F;" d="M28.7,222.3c9.6,20.7,48.4,10.4,69.9-4.3C86.4,215.8,65.4,204.4,28.7,222.3z"/>
<path style="fill:#FFCD4F;" d="M48.5,208.3c-10.4-15.3,9-37.9,25-53.9C76,175.8,77.5,187.1,48.5,208.3z"/>
<path style="fill:#FFCD4F;" d="M67.1,199.4c9.5,17.5,41.5,4.2,57.8-13.4C108.4,186,94.1,184.5,67.1,199.4z"/>
<path style="fill:#FFCD4F;" d="M82.4,184.4c-9.4-10.7-2.6-26.9,9.6-50c0.1-0.1,0.1-0.2,0.1-0.2c0.8,1.5,2.7,5.2,4.3,9.9
	c0.3,1.3,1.6,4.3,2.4,10.8c-0.1,0.8,0.4,2.2-0.3,5.2C96.4,166.8,91.6,174,82.4,184.4z"/>
<path style="fill:#FFCD4F;" d="M97,174.1c13.6,14.2,39-6.5,48.4-25.9c-5.2,2.2-17.6,4.9-26.2,9.3c-0.4,0.2-0.8,0.5-1.3,0.9
	C113.6,161.4,111.5,164,97,174.1z"/>
<path style="fill:#FFCD4F;" d="M107.7,152.1c-11.8-9.6-8.5-21.4-5.3-44.9c4.2,4.7,16.2,15.8,11.4,29
	C112.3,141.4,112.3,142.6,107.7,152.1z"/>
<path style="fill:#FFCD4F;" d="M116,147.9c13.9,8.9,30.3-15.1,33-35.2C136,120.3,126.1,131.1,116,147.9z"/>
<path style="fill:#FFCD4F;" d="M123.8,122.6c-7.3-1.8-13-9.7-14.8-26c-0.2-1.2-0.2-1.3-1-6.6c-0.1-0.7-0.1-1-0.6-4
	c0-0.4-0.1-0.6-0.1-0.6c1.8,1,10.2,5.5,14.7,11.8c0.3,0.4,1.1,1.6,1.8,4.1c0.4,4.5,1.7,4.2,0.3,19.6
	C124,121.2,124,121.6,123.8,122.6z"/>
<path style="fill:#FFCD4F;" d="M129.7,115.7c11.2,4.4,20.3-12.8,20.8-26.9c0-1,0.2-2.7,0.1-6.2C142,90.3,134.8,100.9,129.7,115.7z"
	/>
<path style="fill:#FFCD4F;" d="M130.2,96.1c-5.3,0.5-12.5-9.5-14-18c-1-3.3-1.8-6.4-3.5-13.3c1.3,0.6,2.1,0.8,5.6,2.6
	c1.9,1.3,1.8,0.7,6.5,4.5c0.9,0.8,1.7,1.4,3.1,3.5c0.4,0.9,1.1,2.3,1.7,5.6c0.1,0.3,0.1,0.5,0.2,0.8c0.1,0.8,0.2,1,0.4,3.4
	c0,0.3,0,0.6,0.1,0.9C130.4,88.7,130.6,91.3,130.2,96.1z"/>
<path style="fill:#FFCD4F;" d="M134.2,87.3c4.9,1.6,11.6-4,12.9-12.4c0.3-2.1,1-6.3,0.3-12.9c-0.2-1-0.6-4.5-1.8-8.6
	c-1.4,2.6-4.5,7.5-7.3,12.7c-0.1,0.2-0.2,0.4-0.3,0.6c-1,1.8-1.5,4.6-1.9,8.9c-0.1,0.9-0.3,2.6-0.7,5.3c0,0.1,0,0.2-0.1,0.4
	C135.1,82.6,134.8,84.5,134.2,87.3z"/>
<path style="fill:#FFCD4F;" d="M130.8,71.2c-8.4,0.7-14-11.4-18.3-21.9c5.5,1.7,14,3.9,15.8,11.6c0.1,0.3,0.4,1,0.8,2.6
	c0.4,1.5,0.6,1.7,1.3,5.8C130.6,69.7,130.7,69.7,130.8,71.2z"/>
<path style="fill:#FFCD4F;" d="M132.8,64.2c7.7,0.4,11.5-14.1,8.4-23.4c-1.1-4.3-0.9-4.9-4.3-12.8c-0.8,4-6.9,13.8-5.1,22.4
	C132.1,53,132.7,59.1,132.8,64.2z"/>
<path style="fill:#FFCD4F;" d="M127.1,48c-8.3,2.4-15-8.3-19.9-16.1c2.4,0.6,9.1,0.7,13.3,4.5c0.2,0.2,0.4,0.4,0.6,0.7
	C123.2,39.7,125.2,43.1,127.1,48z"/>
<path style="fill:#FFCD4F;" d="M127.5,41c9.4-3.5,6.3-20.3-1.7-31.8C122.7,18.7,122.8,28.4,127.5,41z"/>
<path style="fill:#FFCD4F;" d="M120.4,30.1c-0.1-0.1-0.4,0-2.8-1c-9.4-4.5-15.6-14.8-21.4-27.4c8.4,4.2,19.5,9.6,22.7,23.1
	C119.2,25.8,119.7,27.3,120.4,30.1z"/>
</svg>
