<?xml version="1.0" encoding="utf-8"?>
<!-- Generator: Adobe Illustrator 24.0.1, SVG Export Plug-In . SVG Version: 6.00 Build 0)  -->
<svg version="1.1" id="Layer_1" xmlns="http://www.w3.org/2000/svg" xmlns:xlink="http://www.w3.org/1999/xlink" x="0px" y="0px"
	 viewBox="0 0 512 360" style="enable-background:new 0 0 512 360;" xml:space="preserve">
<g>
	<path d="M31.4,8.2C37.4,5.5,44,4,50.6,4.1c135.9,0,271.8,0,407.7,0c7.6-0.2,15.4,0.8,22.2,4.2c-70.9,71-141.7,142.1-212.5,213.2
		c-4.7,5.1-12.7,5.9-18.9,3.6c-3.2-1.1-5.4-3.8-7.7-6.1C171.4,148.7,101.4,78.5,31.4,8.2z"/>
	<path d="M5.7,44.2c0.9-5.3,2.3-10.6,4.7-15.5C60.7,79.1,111,129.6,161.2,180.1C111,230.5,60.7,280.9,10.4,331.3
		c-2.3-4.8-3.8-10-4.7-15.3V44.2z"/>
	<path d="M350.8,180.1C401,129.6,451.3,79.2,501.6,28.7c2.3,4.8,3.7,10,4.7,15.3v270.6c-0.5,5.8-2.2,11.5-4.7,16.7
		C451.3,280.9,401.1,230.5,350.8,180.1z"/>
	<path d="M31.4,351.9c50.2-50.3,100.4-100.7,150.5-151c14.3,14.2,28.4,28.6,42.7,42.7c14.5,14,38.4,16,55.4,5.6
		c5.3-3.1,9.4-7.6,13.7-11.9c12.1-12.1,24.2-24.3,36.3-36.4c50.2,50.4,100.4,100.7,150.6,151.1c-6.1,2.6-12.6,4.2-19.3,4.1
		c-136.9,0-273.8,0-410.7,0C44,356.1,37.4,354.6,31.4,351.9z"/>
</g>
</svg>
