<?xml version="1.0" encoding="utf-8"?>
<!-- Generator: Adobe Illustrator 24.0.1, SVG Export Plug-In . SVG Version: 6.00 Build 0)  -->
<svg version="1.1" id="Layer_2" xmlns="http://www.w3.org/2000/svg" xmlns:xlink="http://www.w3.org/1999/xlink" x="0px" y="0px"
	 viewBox="0 0 314.7 190.7" style="enable-background:new 0 0 314.7 190.7;" xml:space="preserve">
<path style="fill:#212121;" d="M10.1,3.7l-7.4,6.5l7.4,6.5l-7.4,6.5l7.4,6.5l-7.4,6.5l7.4,6.5l-7.4,6.5l7.4,6.5l-7.4,6.5l7.4,6.5
	l-7.4,6.5l7.4,6.5l-7.4,6.5l7.4,6.5l-7.4,6.5l7.4,6.5L2.7,115l7.4,6.5l-7.4,6.5l7.4,6.5l-7.4,6.5l7.4,6.5l-7.4,6.5l7.4,6.6l-7.4,6.5
	l7.4,6.6l-7.4,6.6l7.4,6.6l0,0c0,0,20.6,2.3,25.4-0.5S43.8,180,56,180s73.5,0,73.5,0H185c0,0,61.3,0,73.5,0s15.8,3.8,20.5,6.5
	s25.2,0.5,25.2,0.5l0.1,0l7.4-6.5l-7.4-6.5l7.4-6.5l-7.4-6.5l7.4-6.5l-7.4-6.5l7.4-6.5l-7.4-6.5l7.4-6.5l-7.4-6.5l7.4-6.5l-7.4-6.5
	l7.4-6.5l-7.4-6.5l7.4-6.6l-7.4-6.5l7.4-6.6l-7.4-6.6l7.4-6.5l-7.4-6.5l7.4-6.6l-7.4-6.6l7.4-6.6l-7.4-6.6l7.4-6.5l-7.4-6.6l7.4-6.6
	l-7.4-6.6l0,0c0,0-20.5-2.3-25.2,0.5s-8.3,6.5-20.5,6.5s-73.5,0-73.5,0h-55.5c0,0-61.3,0-73.5,0S40.3,6.9,35.5,4.2
	S10.1,3.7,10.1,3.7L10.1,3.7z"/>
<g>
	<defs>
		<path id="SVGID_1_" d="M10.1,3.7l-7.4,6.5l7.4,6.5l-7.4,6.5l7.4,6.5l-7.4,6.5l7.4,6.5l-7.4,6.5l7.4,6.5l-7.4,6.5l7.4,6.5l-7.4,6.5
			l7.4,6.5l-7.4,6.5l7.4,6.5l-7.4,6.5l7.4,6.5L2.7,115l7.4,6.5l-7.4,6.5l7.4,6.5l-7.4,6.5l7.4,6.5l-7.4,6.5l7.4,6.6l-7.4,6.5
			l7.4,6.6l-7.4,6.6l7.4,6.6l0,0c0,0,20.6,2.3,25.4-0.5S43.8,180,56,180s73.5,0,73.5,0H185c0,0,61.3,0,73.5,0s15.8,3.8,20.5,6.5
			s25.2,0.5,25.2,0.5l0.1,0l7.4-6.5l-7.4-6.5l7.4-6.5l-7.4-6.5l7.4-6.5l-7.4-6.5l7.4-6.5l-7.4-6.5l7.4-6.5l-7.4-6.5l7.4-6.5
			l-7.4-6.5l7.4-6.5l-7.4-6.5l7.4-6.6l-7.4-6.5l7.4-6.6l-7.4-6.6l7.4-6.5l-7.4-6.5l7.4-6.6l-7.4-6.6l7.4-6.6l-7.4-6.6l7.4-6.5
			l-7.4-6.6l7.4-6.6l-7.4-6.6l0,0c0,0-20.5-2.3-25.2,0.5s-8.3,6.5-20.5,6.5s-73.5,0-73.5,0h-55.5c0,0-61.3,0-73.5,0
			S40.3,6.9,35.5,4.2S10.1,3.7,10.1,3.7L10.1,3.7z"/>
	</defs>
	<clipPath id="SVGID_2_">
		<use xlink:href="#SVGID_1_"  style="overflow:visible;"/>
	</clipPath>
	<path style="clip-path:url(#SVGID_2_);fill:#890A0A;" d="M10,141.6c0,0,12.5,0,20.6,0s8,3,16.4,3s214.8,0,222.4,0
		c7.6,0,7.4-3,15.1-3c7.8,0,29.3,0,29.3,0v48.2H0.8v-48.2H10z"/>
	<path style="opacity:0.3;clip-path:url(#SVGID_2_);" d="M10,191.9V189c0,0,15.4,4.7,26.5-6c5.3-5.2,8.8-9,24.5-6.2
		c23.6,4.3,182.4,4.1,193.7-0.1c8.8-3.3,16.1,0,23.2,7c9,8.9,26.7,5.4,26.7,5.4l-3.8,1.9L10,191.9z"/>
	<path style="opacity:0.18;clip-path:url(#SVGID_2_);fill:#FFFFFF;" d="M10,3.7c13.8-0.5,18.7-4.3,27.5,5.5c6.9,7.6,17.9,4.6,24,4
		c6.1-0.6,64.2-0.5,87.5-0.5c21,0,84.5-0.9,114,2c13.3,1.3,11.1-15.6,41.5-11c23.2,3.5-3.2-0.4-3.2-0.4L13.8,3.5
		C13.8,3.5-3.8,4.2,10,3.7z"/>
</g>
<g style="opacity:0.1;">
	<rect x="15.1" y="3.3" width="2.2" height="138.4"/>
	<rect x="21.8" y="3.3" width="2.2" height="138.4"/>
	<rect x="28.3" y="3.3" width="2.2" height="138.4"/>
</g>
<g style="opacity:5.000000e-02;">
	<rect x="18.3" y="3.3" style="fill:#FFFFFF;" width="2.2" height="138.4"/>
	<rect x="25" y="3.3" style="fill:#FFFFFF;" width="2.2" height="138.4"/>
</g>
<g style="opacity:0.1;">
	<rect x="283.4" y="3.3" width="2.2" height="138.4"/>
	<rect x="290.1" y="3.3" width="2.2" height="138.4"/>
	<rect x="296.7" y="3.3" width="2.2" height="138.4"/>
</g>
<g style="opacity:5.000000e-02;">
	<rect x="286.7" y="3.3" style="fill:#FFFFFF;" width="2.2" height="138.4"/>
	<rect x="293.3" y="3.3" style="fill:#FFFFFF;" width="2.2" height="138.4"/>
</g>
<g style="opacity:0.15;">
	<rect x="15.1" y="141.6" width="2.2" height="45.9"/>
	<rect x="21.8" y="141.6" width="2.2" height="45.9"/>
	<rect x="28.3" y="141.6" width="2.2" height="45.9"/>
</g>
<g style="opacity:0.15;">
	<rect x="283.4" y="141.6" width="2.2" height="45.9"/>
	<rect x="290.1" y="141.6" width="2.2" height="45.9"/>
	<rect x="296.7" y="141.6" width="2.2" height="45.9"/>
</g>
<g style="opacity:0.1;">
	<rect x="286.7" y="141.6" style="fill:#FFFFFF;" width="2.2" height="45.9"/>
	<rect x="293.3" y="141.6" style="fill:#FFFFFF;" width="2.2" height="45.9"/>
</g>
<g style="opacity:0.1;">
	<rect x="18.4" y="141.6" style="fill:#FFFFFF;" width="2.2" height="45.9"/>
	<rect x="25" y="141.6" style="fill:#FFFFFF;" width="2.2" height="45.9"/>
</g>
<path style="opacity:0.18;fill:#FFFFFF;" d="M42.2,160c0.5-32.7,0.2-70.2,0-83.9c-0.2-16.2-0.3-42.7-0.8-46.2
	c-0.5-3.7,5.9-6.8,11.1-6.8c-3.5,1.4-7.8,1.9-7.7,8.3c0.3,8.9-0.2,70.5-1.2,100.4C43.4,141.8,42.1,163.6,42.2,160z"/>
<path style="opacity:0.18;fill:#FFFFFF;" d="M270,158.8c-0.5-32.7-0.2-70.2,0-83.9c0.2-16.2,0.3-42.7,0.8-46.2
	c0.5-3.7-5.9-6.8-11.1-6.8c3.5,1.4,7.8,1.9,7.7,8.3c-0.3,8.9,0.2,70.5,1.2,100.4C268.8,140.5,270,162.3,270,158.8z"/>
<text transform="matrix(1 0 0 1 247.667 166.028)" style="fill:#FFFFFF; font-family:'Arial-BoldMT'; font-size:16.3518px;">x5</text>
<text transform="matrix(1 0 0 1 44.3336 164.9447)" style="fill:#FFFFFF; font-family:'Arial-BoldMT'; font-size:10px;">CARBON FIBER</text>
<g>
	<rect x="228" y="159.4" style="fill:none;stroke:#FFFFFF;stroke-miterlimit:10;" width="14.7" height="9.6"/>
	<polyline style="fill:none;stroke:#FFFFFF;stroke-miterlimit:10;" points="228,164.2 220.7,164.2 220.7,154.6 235.3,154.6 
		235.3,159.4 	"/>
</g>
</svg>
