<svg xmlns="http://www.w3.org/2000/svg" xml:space="preserve" id="Layer_1" x="0" y="0" style="enable-background:new 0 0 95 58" version="1.1" viewBox="0 0 95 58"><style>.st0{fill:none;stroke:#80dafd;stroke-linecap:round;stroke-linejoin:round;stroke-miterlimit:10}</style><path d="M76.1 37.3h-4.7l1.2-4H77c.3-1.4.7-2.9 1.1-4.3h-4.8l1.2-4h4.6c.3-1.3.6-2.5.9-3.8-6.1-.1-12.3.1-18.4-.1-3.1-2.7-6.2-5.7-10.4-6.8-1.8-3.1-3.6-6.2-5.2-9.4-1.7 3.2-3.4 6.3-5.3 9.4-3.9 1.3-7.3 3.7-9.9 6.8-6.3.1-12.6 0-18.9.1.3 1.3.6 2.5.9 3.8h4.4l1.2 4h-4.6c.4 1.4.7 2.9 1.1 4.3h4.3l1.2 4H16c.3 1.4.7 2.7 1 4.1h8.8c-1.2 2-2.4 3.9-3.6 5.9 3.3 0 6.6 0 10-.1 7.3 7.7 20.6 7.7 27.9 0 3.3 0 6.7 0 10 .1-1.2-1.9-2.4-3.9-3.6-5.9 2.9 0 5.8.1 8.7.1.2-1.5.5-2.8.9-4.2zM55 42.8c-3-1.8-6-3.5-8.9-5.3-3 1.8-5.8 3.8-9 5.1-2.3.1-4.6-.1-7-.2 1.3-2.1 2.3-4.5 3.9-6.4 2.6-1.9 5.6-3.3 8.3-5 0-3.3-.1-6.6.1-9.9.9-2.3 2.4-4.4 3.6-6.5 1.2 2.2 2.9 4.2 3.7 6.6.2 3.3 0 6.5 0 9.8 3 1.9 6.2 3.3 8.9 5.5 1.3 1.9 2.3 4 3.4 6-2.3 0-4.6.1-7 .3z" class="st0"/><path d="M39.9 18.2C34 21.4 29.8 28.1 30.5 35M36.7 38.9l9.4-5.6M55.6 38.9l-9.5-5.6M46.1 33.4v-11M62.2 34.9c.7-6.9-3.5-13.5-9.4-16.8M36.2 46.8c5.9 4 13.9 4 19.7-.1" class="st0"/></svg>