<svg xmlns="http://www.w3.org/2000/svg" xml:space="preserve" style="enable-background:new 0 0 95 58" viewBox="0 0 95 58"><path d="M47.6 7.3c.4.8.7 1.5 1.1 2.3.2.3.3.7.5 1-.5 1.1-1 2.2-1.6 3.3-.5-1.1-1-2.2-1.6-3.3.6-1 1.1-2.1 1.6-3.3m6.1 5.3c1 .3 2.1.6 3.1.8-.3.2-.6.4-.9.7-.2.1-.3.3-.4.5-.7 1.3-.9 2.7-1.1 4.1-.1 0-.2-.1-.2-.1-.9-.4-1.8-.9-2.7-1.3.8-1.7 1.5-3.2 2.2-4.7m-12 0c.7 1.7 1.4 3.2 2.1 4.6l-.2.1c-.9.4-1.8.9-2.7 1.3-.3-1.3-.5-2.5-.8-3.7-.1-.4-.3-.7-.6-1l-.9-.6c.2 0 .4-.1.6-.1.7-.1 1.6-.3 2.5-.6m-26.2 2c3.8 0 7.6 0 11 .1-.1 4.9 3.1 9.5 8.1 11.5.4 1.2.9 2.4 1.3 3.6-.6 1.3-1.3 2.7-1.9 4v.1c-.9-.2-1.8-.3-2.6-.5.8-1.5 1.7-2.8 2.5-4.1.2-.4.3-.9.2-1.3-.1-.4-.5-.8-.9-.9l-2-.8c-.2-.1-.3-.1-.5-.1-.4 0-.7.1-1 .4-1.6 1.5-3.4 2.9-5 4.3-1 .8-2 1.6-3 2.5-.5-.6-1-1.3-1.5-1.9l1.5-1.2c2.2-1.8 4.5-3.6 6.6-5.7.5-.5.6-1.2.3-1.8-.3-.5-.8-.8-1.3-.8H27c-1.9.4-3.8 1-5.6 1.6-2 .7-3.9 1.3-5.8 1.6-.5-.6-1-1.3-1.5-1.9 1-.3 2.1-.6 3.1-.9 2.6-.7 5.2-1.5 7.8-2.4.7-.2 1.1-.9 1-1.7-.1-.7-.7-1.2-1.5-1.3H9.7c-.6-.8-1.3-1.6-1.9-2.5 2.2.1 4.8.1 7.7.1m62.6 0h9.5c-.2.3-.5.6-.7.9-.4.5-.8 1.1-1.2 1.6h-15c-.7 0-1.3.5-1.4 1.3-.1.7.3 1.4 1 1.7 2.6.9 5.3 1.7 8 2.5.9.3 1.9.5 2.9.8-.5.7-1 1.3-1.6 2-2.1-.6-4.2-1.2-6.3-1.9L68.5 22c-.1 0-.3-.1-.4-.1-.5 0-1 .3-1.3.7-.4.6-.3 1.3.1 1.8 1.7 1.9 3.6 3.5 5.5 5 .9.7 1.8 1.4 2.6 2.1-.4.4-.7.8-1.1 1.2-2.1-.3-3.8-1.9-5.6-3.6-1-.9-2-1.9-3.1-2.7-.3-.2-.6-.3-.9-.3-.2 0-.4 0-.6.1-.5.2-1.4.6-1.9.8-.4.2-.7.5-.8.9-.1.4-.1.9.2 1.2l2.4 4.2c-.3 0-.6.1-.8.1l-1.8.3c-.6-1.3-1.3-2.6-2-4 .5-1.3 1-2.5 1.5-3.8 4.8-1.7 8-6.3 8-11.4 2.9.1 6 .1 9.6.1m-30.6 6.2c1 .5 1.9 1 2.9 1.4 1.7.9 3.5 1.8 5.3 2.7-.8 2-1.5 4.1-2.2 6.1-.6 1.7-1.1 3.4-1.8 5.1-.1.4-.1.8 0 1.2.7 1.5 1.3 3 1.8 4.5.4 1.1.9 2.3 1.4 3.4-.5.2-1 .5-1.5.7-.3-1.3-.6-2.4-.9-3.6-.2-.7-.8-1.1-1.4-1.1H51c-.7.1-1.3.6-1.4 1.3-.2 1.9-.3 4 .2 6.1-.7.9-1.4 1.8-2 2.7-.5-.8-1.1-1.5-1.6-2.3l-.4-.6c.5-2.1.7-4 .5-5.8-.1-.7-.6-1.2-1.3-1.3h-.1c-.6 0-1.2.4-1.4 1-.4 1.1-.7 2.3-1.1 3.5-.6-.3-1.2-.5-1.7-.8.9-2 1.7-4 2.4-6 .2-.6.5-1.2.7-1.8.1-.3.1-.7 0-1.1-.6-1.7-1.2-3.5-1.8-5.2-.7-2.1-1.4-4.2-2.3-6.3 1.2-.7 2.5-1.3 3.7-1.9 1.2-.3 2.6-1.1 4.1-1.9m0-17c-1 2.3-2 4.6-3.2 6.8 1.2 2.2 2.2 4.5 3.2 6.7 1.2-2.2 2.3-4.5 3.3-6.8-1-2.2-2.1-4.5-3.3-6.7zm5.3 7c-1.1 2.4-2.2 4.8-3.4 7.1 2.1 1 4.1 2 6.2 3 .4-1.9.4-3.9 1.3-5.6 1.1-.9 2.4-1.7 3.6-2.5-2.6-.6-5.1-1.3-7.7-2zm-10.2.1c-2.6.6-5.2 1.3-7.9 1.9 1.3.8 2.5 1.7 3.8 2.5.4 1.9.8 3.7 1.2 5.6 2-1 4-2 6.1-2.9-1.2-2.3-2.2-4.7-3.2-7.1zm-27.1 2.2c-3.7 0-7.4 0-11.1.1 1.4 1.8 2.8 3.6 4.3 5.4h2.7c3.4 0 6.7-.1 10.1-.1h2.9c-4.2 1.5-8.6 2.6-12.9 3.9 1.1 1.4 2.2 2.9 3.5 4.3 4.2-.6 8.1-2.5 12.3-3.4-2.8 2.8-6.1 5.2-9.1 7.7 1.1 1.4 2.2 2.9 3.4 4.3 3-2.6 6.2-5.1 9.2-7.8l2 .8c-1.2 2-2.4 4-3.5 6 1.9.4 3.9.7 5.8 1.1.9-1.9 1.9-3.7 2.8-5.6L36.1 25c-4.9-1.7-8.6-6.5-7.7-11.9H15.5zm62.6 0H66.9c.8 5.2-2.5 10.2-7.5 11.7-.7 1.7-1.4 3.4-2 5.1.9 1.9 1.8 3.7 2.8 5.6 1.9-.3 3.8-.6 5.8-.9-1-2.1-2.2-4.2-3.4-6.1.5-.2 1.4-.6 1.8-.8 3.3 2.3 5.8 6.5 10.2 6.6.8-1 1.7-1.9 2.5-2.9-2.9-2.8-6.4-4.9-9.1-8 4 1.2 8 2.5 12.1 3.6 1.1-1.5 2.3-3 3.5-4.5-4.3-1.3-8.6-2.4-12.8-3.9h2.9c3.2 0 6.5.1 9.7.1h2.9c1.4-1.8 2.8-3.6 4.2-5.5-4-.1-8.2-.1-12.4-.1zm-30.6 6c-3.3 1.8-6.7 3.4-9.9 5.2 1.7 4.2 3 8.5 4.5 12.7-1.2 3-2.3 6.1-3.8 9.1 1.6.7 3.1 1.4 4.7 2.1.5-1.7 1-3.4 1.6-5 .3 2-.1 4-.6 5.9 1.2 1.7 2.5 3.4 3.7 5.2 1.1-1.7 2.3-3.4 3.6-5-.6-2.1-.5-4.2-.3-6.3.5 1.8.9 3.5 1.3 5.3l4.5-2.1c-1.4-3.1-2.4-6.3-3.8-9.3 1.6-4.1 2.7-8.4 4.5-12.4-3.2-2.1-6.7-3.6-10-5.4z" style="fill:#fcf09f"/></svg>